<svg width="250" height="100" viewBox="0 0 250 100" fill="none" xmlns="http://www.w3.org/2000/svg">
<rect width="250" height="100" rx="16" fill="none"/>
<g clip-path="url(#clip0_2085_1871)">
<path d="M194.129 49.5998L204.563 34H197.289L190.563 44.3394L183.834 34.0128H176.56L186.993 49.6126L176.273 65.7538H183.594L190.55 54.8704L197.503 65.7538H204.825L194.129 49.5998ZM174.455 59.9259H158.075V52.7742H174.455V46.9698H158.075V39.8043H174.455V34.0128H152.227V65.741H174.455V59.9259ZM149.657 34.0128H124.03V39.8171H133.923V65.741H139.78V39.8043H149.665L149.657 34.0128ZM121.47 34.0128H115.618V65.741H121.475L121.47 34.0128ZM113.416 49.8848C113.414 45.6824 111.727 41.6509 108.721 38.6671C107.239 37.1955 105.476 36.0268 103.533 35.2281C101.591 34.4293 99.5072 34.0164 97.4022 34.0128H84.9547V65.741H97.4022C99.507 65.7375 101.59 65.3247 103.533 64.5261C105.475 63.7276 107.238 62.5591 108.72 61.0878C111.726 58.1045 113.413 54.0735 113.416 49.8715V49.8848ZM107.561 49.8715C107.563 51.1929 107.301 52.5018 106.79 53.7238C106.281 54.944 105.533 56.0535 104.588 56.9888C103.645 57.922 102.525 58.6624 101.29 59.1673C100.058 59.671 98.7364 59.9289 97.4022 59.9259H90.8122V39.8043H97.4022C98.7375 39.8014 100.06 40.0598 101.293 40.5644C102.529 41.0701 103.65 41.8117 104.593 42.7463C105.537 43.683 106.286 44.7938 106.794 46.0153C107.304 47.2388 107.564 48.549 107.561 49.8715ZM82.0287 34.0128H76.1712V56.0052L59.6992 34.0128H53.8417V65.741H59.6992V43.7487L76.1737 65.741H82.0312L82.0287 34.0128ZM50.9102 34.0128H45.0552V65.741H50.9132L50.9102 34.0128Z" fill="black"/>
</g>
<defs>
<clipPath id="clip0_2085_1871">
<rect width="160" height="32" fill="black" transform="translate(45 34)"/>
</clipPath>
</defs>
</svg>
