<svg width="67" height="53" viewBox="0 0 67 53" fill="none" xmlns="http://www.w3.org/2000/svg">
<path fill-rule="evenodd" clip-rule="evenodd" d="M34.9361 28.1586C34.307 29.4134 33.23 30.2212 32.0632 30.4938C31.8871 30.4938 31.617 30.5827 31.3469 30.5827C29.3748 30.5827 28.2089 29.0569 28.2089 26.8148C28.2089 23.9411 29.9125 22.5973 32.0632 21.9665C33.23 21.6981 34.5779 21.6075 35.9225 21.6075V22.6854C35.9225 24.7488 36.0114 26.3627 34.9361 28.1586ZM35.9225 17.4831C34.7566 17.572 33.4086 17.6609 32.0632 17.8371C30.0014 18.1097 27.9397 18.4687 26.2378 19.2765C22.9186 20.6228 20.6748 23.4932 20.6748 27.709C20.6748 33.0069 24.082 35.6961 28.391 35.6961C29.8245 35.6961 30.9904 35.5149 32.0632 35.249C33.7719 34.7088 35.2037 33.7215 36.9073 31.9256C37.8945 33.2719 38.1663 33.9027 39.8682 35.3379C40.317 35.5149 40.7658 35.5149 41.1222 35.249C42.2001 34.3498 44.0858 32.7343 45.0705 31.8367C45.5193 31.4786 45.4312 30.9392 45.1586 30.4938C44.1738 29.2365 43.1848 28.1586 43.1848 25.7361V17.6601C43.1848 14.2512 43.4575 11.1099 40.9453 8.77886C38.8835 6.89745 35.6533 6.17773 33.1411 6.17773H32.0632C27.4926 6.44276 22.651 8.41815 21.5706 14.0717C21.3911 14.7914 21.9313 15.059 22.2903 15.147L27.3131 15.7761C27.8508 15.6856 28.1209 15.2359 28.2089 14.7914C28.656 12.8169 30.2715 11.8296 32.0632 11.6475H32.4247C33.5018 11.6475 34.6685 12.0972 35.2943 12.9964C36.0114 14.0717 35.9225 15.5086 35.9225 16.766V17.4831Z" fill="#343B45"/>
<path fill-rule="evenodd" clip-rule="evenodd" d="M54.0623 36.6142V36.6125C54.0437 36.1891 53.9548 35.8665 53.7786 35.5981L53.7592 35.5727L53.738 35.5456C53.5585 35.35 53.3866 35.2755 53.2003 35.1942C52.6432 34.9792 51.8329 34.864 50.8583 34.8623C50.1581 34.8623 49.3859 34.9292 48.6094 35.0994L48.6069 35.046L47.8254 35.3068L47.811 35.3136L47.369 35.4576V35.4762C46.8637 35.6859 46.385 35.9547 45.9431 36.2772C45.6705 36.4804 45.4461 36.7513 45.4334 37.1645C45.4333 37.2856 45.4599 37.4052 45.5111 37.515C45.5623 37.6247 45.6369 37.7218 45.7297 37.7996C45.8313 37.8805 45.9484 37.9398 46.0738 37.9735C46.1992 38.0073 46.3303 38.015 46.4588 37.996L46.4969 37.9943L46.5256 37.9892C46.9084 37.908 47.4655 37.8529 48.1175 37.7623C48.6763 37.6997 49.269 37.6548 49.783 37.6548C50.1462 37.6522 50.4731 37.6785 50.6974 37.7259C50.794 37.7435 50.8875 37.7748 50.9752 37.8191C50.9927 37.8928 50.9999 37.9686 50.9963 38.0443C51.0014 38.4744 50.8202 39.2729 50.5687 40.0527C50.3249 40.8317 50.0285 41.6132 49.8329 42.1322C49.7816 42.2575 49.7549 42.3915 49.7542 42.5268C49.7491 42.7351 49.8355 42.9883 50.0167 43.1559C50.1945 43.3227 50.4231 43.3896 50.6145 43.3896H50.6238C50.9108 43.3871 51.1547 43.2728 51.3646 43.1077C53.3485 41.3245 54.0386 38.4744 54.0674 36.8699L54.0623 36.6142ZM48.1818 39.0866C47.9727 39.0858 47.7661 39.1321 47.5773 39.2221C47.3597 39.3084 47.137 39.4092 46.927 39.4981L46.6188 39.6268L46.2174 39.7877V39.7919C41.8568 41.5616 37.2761 42.5988 33.0366 42.6894C32.8808 42.6945 32.7233 42.6945 32.5726 42.6945C25.9055 42.6987 20.467 39.6056 14.9803 36.5574C14.8022 36.4602 14.6031 36.4076 14.4003 36.4042C14.1539 36.4042 13.9007 36.4973 13.7161 36.6692C13.6238 36.7571 13.5504 36.8628 13.5003 36.98C13.4502 37.0972 13.4245 37.2234 13.4248 37.3508C13.4223 37.6827 13.6018 37.9892 13.8524 38.1874C19.0022 42.6606 24.6464 46.8154 32.2389 46.8205C32.3871 46.8205 32.5378 46.8154 32.6877 46.8138C37.5174 46.7054 42.9779 45.0729 47.2174 42.41L47.2428 42.393C47.8115 42.0536 48.3569 41.6766 48.8753 41.2644C49.2004 41.023 49.4257 40.6454 49.4257 40.2534C49.4113 39.5574 48.8194 39.0866 48.1818 39.0866Z" fill="#FF9A00"/>
</svg>
