<svg width="67" height="53" viewBox="0 0 67 53" fill="none" xmlns="http://www.w3.org/2000/svg">
<path d="M54.2205 13.2197C54.203 13.162 54.1855 13.1061 54.1628 13.0449C40.5498 13.0449 26.9397 13.0449 13.3325 13.0449C13.2976 13.0812 13.2755 13.1278 13.2695 13.1778C13.2695 23.7333 13.2695 34.2882 13.2695 44.8425C13.3696 45.4058 13.6551 45.9196 14.0806 46.3021C14.0981 46.3021 14.1383 46.3143 14.1557 46.3195C14.3863 46.5256 14.6615 46.6752 14.9598 46.7565C15.173 46.7443 15.3793 46.8369 15.5926 46.8142H32.4882C32.6501 46.8298 32.8135 46.8162 32.9707 46.774C32.9707 46.7513 32.9811 46.7111 32.9881 46.6866C32.9951 46.6622 32.9986 46.5957 33.0056 46.5608C33.3674 44.5384 33.717 42.5089 34.1016 40.4865C34.1138 40.4009 34.1261 40.3117 34.1365 40.2278C32.5739 40.2278 31.0042 40.2278 29.4415 40.2278C29.0622 40.2156 28.6725 40.2278 28.2931 40.1806C27.6429 40.1527 26.9874 40.1806 26.3389 40.1125C25.5349 40.1125 24.7343 40.0373 23.9303 40.0373C23.2993 39.9744 22.6613 39.9971 22.0232 39.9691C21.609 39.9167 21.1842 39.9394 20.7647 39.9219C20.0795 39.8485 19.3856 39.8992 18.7004 39.8258C17.9768 39.8258 17.2531 39.7681 16.5294 39.7506C16.5353 39.7398 16.5389 39.7279 16.5399 39.7157C16.7812 39.7157 17.0171 39.7052 17.2584 39.6982C17.7932 39.63 18.3333 39.6755 18.8682 39.6003C19.4258 39.6003 19.9764 39.5269 20.534 39.5269C21.0287 39.457 21.5286 39.4972 22.0232 39.429C22.6036 39.429 23.1717 39.3538 23.752 39.3486C24.2292 39.2857 24.7116 39.3189 25.1888 39.2559C25.7464 39.2559 26.2987 39.1755 26.8563 39.1808C27.4017 39.1179 27.9593 39.1353 28.5046 39.0776C28.454 38.8661 28.4138 38.6529 28.3666 38.4396C28.3264 38.3085 28.1655 38.3365 28.0624 38.319C26.8155 38.1407 25.5722 37.9659 24.3323 37.7946C24.4127 37.73 24.5228 37.7597 24.6155 37.7474C25.5803 37.674 26.5382 37.5866 27.5048 37.5184C27.7233 37.5062 27.9366 37.466 28.1551 37.4608C28.0782 37.1543 27.9818 36.853 27.8667 36.5588C25.8041 36.2424 23.7415 35.961 21.6841 35.6219C22.219 35.5362 22.7591 35.496 23.2923 35.4383L23.3395 35.4209C25.0455 35.2461 26.7584 35.0416 28.4644 34.8737C30.6319 34.8633 32.7924 34.8737 34.9581 34.8737C35.028 34.8633 35.1486 34.8982 35.1608 34.8003C35.3356 33.8687 35.5104 32.9387 35.6852 32.0036C35.9189 30.7018 36.3368 29.4399 36.9263 28.2559C37.8813 26.3512 39.3659 24.7628 41.2017 23.6814C42.9077 22.6816 44.8864 22.1991 46.8511 22.1082C47.4916 22.0528 48.1362 22.0662 48.7739 22.1484C49.1881 22.2463 49.6129 22.3617 49.9397 22.6431C50.1973 22.8761 50.388 23.1736 50.4921 23.5049C50.737 24.2744 50.9137 25.0641 51.02 25.8646C51.02 26.1863 51.0829 26.5498 50.9098 26.8418C50.7368 27.1337 50.4274 27.2683 50.1233 27.3539C49.0151 27.6406 47.8509 27.3714 46.7445 27.6406C45.8217 27.835 44.9936 28.3404 44.3987 29.0722C43.7153 29.9217 43.35 30.9792 43.1525 32.0438C42.9969 32.9877 42.8029 33.9298 42.6473 34.8772C43.738 34.8772 44.8357 34.8772 45.9334 34.8772C46.1548 34.8732 46.3727 34.9325 46.5613 35.0484C46.75 35.1643 46.9015 35.3317 46.9979 35.531C47.2269 36.0554 47.1727 36.6584 47.1011 37.216C47.0213 37.8466 46.8444 38.461 46.5767 39.0374C46.4671 39.2907 46.3078 39.5193 46.1081 39.7097C45.9084 39.9001 45.6725 40.0483 45.4143 40.1457C45.1313 40.2309 44.8346 40.2606 44.5403 40.2331C43.5755 40.2331 42.6176 40.2436 41.644 40.2331C41.4884 40.9323 41.3853 41.6629 41.2472 42.3813C40.9937 43.7797 40.7473 45.1781 40.4938 46.5765C40.4938 46.6219 40.4833 46.7198 40.4833 46.7723C40.9361 46.795 41.3905 46.7723 41.845 46.7828C45.2127 46.7828 48.5839 46.7828 51.9586 46.7828C52.3248 46.7953 52.6874 46.7077 53.0074 46.5293C53.1962 46.4611 53.3115 46.2951 53.4776 46.2024C53.6436 46.1098 53.6856 45.921 53.8272 45.8004C53.9987 45.5458 54.1072 45.254 54.1436 44.9491C54.1723 44.9478 54.201 44.9443 54.2292 44.9386C54.2152 34.3686 54.2327 23.795 54.2205 13.2197Z" fill="url(#paint0_linear_1870_2115)" stroke="#FCD109" stroke-width="0.175588"/>
<path d="M18.6301 6.26605C19.1178 6.11048 19.6299 6.21536 20.1299 6.1804C29.5152 6.1804 38.8999 6.1804 48.2841 6.1804C48.8417 6.15768 49.3328 6.47406 49.8467 6.63488C50.261 6.80093 50.691 6.93378 51.1052 7.11033C51.1866 7.15405 51.2585 7.21346 51.3167 7.28513C51.3167 8.04375 51.3167 8.80762 51.3167 9.57324C51.2991 9.77521 51.3133 9.9787 51.3587 10.1763C51.4793 10.1938 51.5335 10.2847 51.6226 10.3598C51.9898 10.5595 52.3405 10.7881 52.6714 11.0433C53.1958 11.4121 53.7412 11.7337 54.2446 12.1131C54.2656 12.2616 54.2518 12.413 54.2044 12.5553C54.1754 12.7185 54.1636 12.8843 54.1694 13.05C40.554 13.05 26.9439 13.05 13.3391 13.05C13.3094 12.8595 13.3618 12.6707 13.2814 12.4924C13.2692 12.3438 13.2185 12.1428 13.3618 12.0449C13.9369 11.6429 14.5452 11.2793 15.1097 10.8545C15.4593 10.6308 15.8089 10.4 16.1393 10.1711C16.1884 10.048 16.2035 9.91393 16.183 9.783C16.183 8.94921 16.183 8.11542 16.183 7.28163C16.3788 7.02992 16.7179 7.0002 16.9888 6.87435C17.5341 6.66809 18.0865 6.46707 18.6266 6.25906M18.6616 6.35695C17.9257 6.63837 17.1846 6.90931 16.4487 7.19074C16.3508 7.20822 16.2983 7.29387 16.2477 7.36554C16.2477 7.41099 16.2581 7.49139 16.2581 7.54034C16.2581 8.23953 16.2581 8.9195 16.2581 9.60995C16.2438 9.77797 16.2592 9.9472 16.3036 10.1099C16.2296 10.1879 16.1469 10.2571 16.0571 10.3161C15.2234 10.8563 14.4193 11.4436 13.5855 11.9785C13.4422 12.0641 13.2814 12.1795 13.3268 12.3683C13.2989 12.4714 13.3496 12.5588 13.4597 12.5291C15.2636 12.5168 17.0622 12.5413 18.8678 12.5116C21.5509 12.5116 24.2288 12.5116 26.9084 12.5116L26.9503 12.4941C27.0715 12.5149 27.1948 12.5207 27.3174 12.5116C32.179 12.5116 37.0424 12.5116 41.9075 12.5116C43.437 12.5116 44.9717 12.5116 46.5064 12.5116C49.0339 12.5116 51.5754 12.5343 54.0977 12.5238C54.1711 12.5064 54.1956 12.4539 54.1659 12.363C54.1362 12.2721 54.1956 12.1445 54.0977 12.0868C53.6957 11.8963 53.3496 11.6044 52.9651 11.3737C52.827 11.26 52.6487 11.1989 52.5456 11.0415C52.1488 10.8161 51.7817 10.5416 51.3902 10.2934C51.3189 10.2428 51.2538 10.1842 51.1961 10.1186C51.2279 9.99472 51.2432 9.86718 51.2416 9.7393C51.2416 9.00864 51.2416 8.27973 51.2416 7.54907C51.2578 7.49231 51.2578 7.43216 51.2418 7.37536C51.2257 7.31856 51.1942 7.26735 51.1507 7.22745C50.4515 6.98098 49.7768 6.71704 49.0934 6.46358C48.8782 6.36513 48.6497 6.29915 48.4152 6.2678H19.0496C18.9171 6.28818 18.7866 6.32035 18.6598 6.36394L18.6616 6.35695Z" fill="#F8F3B5"/>
<path d="M18.6301 6.26605C19.1178 6.11048 19.6299 6.21536 20.1299 6.1804C29.5152 6.1804 38.8999 6.1804 48.2841 6.1804C48.8417 6.15768 49.3328 6.47406 49.8467 6.63488C50.261 6.80093 50.691 6.93378 51.1052 7.11033C51.1866 7.15405 51.2585 7.21346 51.3167 7.28513C51.3167 8.04375 51.3167 8.80762 51.3167 9.57324C51.2991 9.77521 51.3133 9.9787 51.3587 10.1763C51.4793 10.1938 51.5335 10.2847 51.6226 10.3598C51.9898 10.5595 52.3405 10.7881 52.6714 11.0433C53.1958 11.4121 53.7411 11.7337 54.2446 12.1131C54.2656 12.2616 54.2518 12.413 54.2044 12.5553C54.1754 12.7185 54.1636 12.8843 54.1694 13.05C40.554 13.05 26.9439 13.05 13.3391 13.05C13.3094 12.8595 13.3618 12.6707 13.2814 12.4924C13.2692 12.3438 13.2185 12.1428 13.3618 12.0449C13.9369 11.6429 14.5452 11.2793 15.1097 10.8545C15.4593 10.6308 15.8089 10.4 16.1393 10.1711C16.1884 10.048 16.2035 9.91393 16.183 9.783C16.183 8.94921 16.183 8.11542 16.183 7.28163C16.3788 7.02992 16.7179 7.0002 16.9888 6.87435C17.5341 6.66809 18.0865 6.46707 18.6266 6.25906M18.6616 6.35695C17.9257 6.63837 17.1846 6.90931 16.4487 7.19074C16.3508 7.20822 16.2983 7.29387 16.2477 7.36554C16.2477 7.41099 16.2581 7.49139 16.2581 7.54034C16.2581 8.23953 16.2581 8.9195 16.2581 9.60995C16.2438 9.77797 16.2592 9.9472 16.3036 10.1099C16.2296 10.1879 16.1469 10.2571 16.0571 10.3161C15.2234 10.8563 14.4193 11.4436 13.5855 11.9785C13.4422 12.0641 13.2814 12.1795 13.3268 12.3683C13.2989 12.4714 13.3496 12.5588 13.4597 12.5291C15.2636 12.5168 17.0622 12.5413 18.8678 12.5116C21.5509 12.5116 24.2288 12.5116 26.9084 12.5116L26.9503 12.4941C27.0715 12.5149 27.1948 12.5207 27.3174 12.5116C32.179 12.5116 37.0424 12.5116 41.9075 12.5116C43.437 12.5116 44.9717 12.5116 46.5064 12.5116C49.0339 12.5116 51.5754 12.5343 54.0977 12.5238C54.1711 12.5064 54.1956 12.4539 54.1659 12.363C54.1362 12.2721 54.1956 12.1445 54.0977 12.0868C53.6957 11.8963 53.3496 11.6044 52.9651 11.3737C52.827 11.26 52.6487 11.1989 52.5456 11.0415C52.1488 10.8161 51.7817 10.5416 51.3902 10.2934C51.3189 10.2428 51.2538 10.1842 51.1961 10.1186C51.2279 9.99472 51.2432 9.86718 51.2416 9.7393C51.2416 9.00864 51.2416 8.27973 51.2416 7.54907C51.2578 7.49231 51.2578 7.43216 51.2418 7.37536C51.2257 7.31856 51.1942 7.26735 51.1507 7.22745C50.4515 6.98098 49.7768 6.71704 49.0934 6.46358C48.8782 6.36513 48.6497 6.29915 48.4152 6.2678H19.0496C18.9171 6.28818 18.7866 6.32035 18.6598 6.36394L18.6616 6.35695Z" stroke="#F8F3B5" stroke-width="0.175588"/>
<path d="M16.2546 7.54736C16.7615 7.76062 17.3034 7.88123 17.812 8.08749C18.0882 8.19761 18.1739 8.49652 18.2945 8.73774C18.1704 8.85545 18.0338 8.9592 17.8872 9.04714C17.3628 9.39673 16.8174 9.74633 16.2948 10.1169C16.2504 9.95423 16.235 9.78499 16.2494 9.61698C16.2546 8.92652 16.2494 8.23782 16.2546 7.54736ZM49.6719 8.08749C50.184 7.88647 50.7206 7.74838 51.231 7.54736C51.231 8.27802 51.231 9.00693 51.231 9.73759C51.2326 9.86547 51.2174 9.99301 51.1856 10.1169C50.7364 9.80576 50.2819 9.51385 49.8344 9.20795C49.6044 9.06596 49.3853 8.90704 49.179 8.7325C49.3048 8.49127 49.3922 8.19761 49.6719 8.08749Z" fill="#F7B402" stroke="#F7B402" stroke-width="0.175588"/>
<path d="M25.0257 8.32383C25.6585 8.17525 26.3646 8.7381 26.314 9.39884C26.3076 9.55649 26.2672 9.7109 26.1955 9.85145C26.1238 9.99199 26.0225 10.1153 25.8986 10.213C25.7747 10.3107 25.6311 10.3804 25.4777 10.4172C25.3243 10.4541 25.1647 10.4573 25.01 10.4267C24.751 10.3537 24.5227 10.1985 24.3598 9.98441C24.2571 9.83146 24.1953 9.65477 24.1803 9.47117C24.1653 9.28758 24.1976 9.1032 24.2741 8.93562C24.3395 8.77978 24.4423 8.64245 24.5734 8.53575C24.7045 8.42906 24.8598 8.35627 25.0257 8.32383ZM41.4215 8.68566C41.5529 8.53643 41.722 8.42526 41.9111 8.36376C42.1002 8.30226 42.3024 8.2927 42.4965 8.33606C42.7026 8.38989 42.8882 8.50369 43.0297 8.66307C43.1712 8.82244 43.2622 9.0202 43.2912 9.23133C43.3202 9.44246 43.2859 9.65745 43.1927 9.84907C43.0994 10.0407 42.9514 10.2003 42.7674 10.3078C42.5528 10.4196 42.3076 10.4583 42.0691 10.4179C41.8305 10.3775 41.6117 10.2603 41.4459 10.084C41.2796 9.89031 41.1861 9.64458 41.1817 9.38927C41.1772 9.13396 41.262 8.8851 41.4215 8.68566Z" fill="#BDA727" stroke="#BDA727" stroke-width="0.175588"/>
<path d="M17.8885 9.04706C18.0352 8.95913 18.1717 8.85538 18.2958 8.73767L18.336 8.77787C18.3779 9.07678 18.3482 9.38093 18.3605 9.67983C18.343 10.5765 18.3779 11.4785 18.336 12.3752C16.6649 12.3752 14.9921 12.363 13.3194 12.3752C13.2739 12.1864 13.4347 12.0711 13.5781 11.9854C14.4118 11.4505 15.2159 10.8632 16.0497 10.3231C16.1398 10.2645 16.2225 10.1952 16.2961 10.1168C16.8188 9.74975 17.3606 9.40365 17.8885 9.04706ZM49.1278 8.93344C49.1261 8.86212 49.1462 8.79197 49.1855 8.73242C49.3919 8.90697 49.611 9.06589 49.841 9.20787C50.2885 9.51377 50.7429 9.80569 51.1922 10.1168C51.2499 10.1824 51.315 10.241 51.3862 10.2916C51.7777 10.5398 52.1448 10.816 52.5416 11.0398C52.6447 11.1936 52.823 11.2583 52.9611 11.3719C53.3456 11.6026 53.6917 11.8963 54.0938 12.0851C54.1916 12.1427 54.1567 12.2599 54.1619 12.3612C52.4891 12.3612 50.8233 12.3612 49.1506 12.3612C49.1226 12.1323 49.1401 11.9015 49.1331 11.6778C49.1348 10.7723 49.1226 9.85288 49.1278 8.93344Z" fill="#F7E62D" stroke="#F7E62D" stroke-width="0.175588"/>
<path d="M54.1613 12.3699C52.4886 12.3699 50.8228 12.3699 49.15 12.3699C49.122 12.141 49.1395 11.9102 49.1342 11.6865C49.1342 10.767 49.122 9.8476 49.1342 8.92816C49.1325 8.85684 49.1526 8.7867 49.1919 8.72715C49.3125 8.48592 49.4052 8.19226 49.6796 8.08214C50.1917 7.88112 50.7284 7.74303 51.2388 7.54201C51.2543 7.48506 51.2539 7.42493 51.2376 7.3682C51.2212 7.31147 51.1896 7.26033 51.1461 7.22038C50.4469 6.97392 49.7722 6.70997 49.0888 6.45652C48.8737 6.35806 48.6451 6.29209 48.4106 6.26074H19.0451C18.9179 6.2829 18.7927 6.31564 18.671 6.35863C17.9369 6.64005 17.1957 6.91099 16.4598 7.19242C16.362 7.2099 16.3095 7.29555 16.2588 7.36721C16.2588 7.41266 16.2693 7.49307 16.2693 7.54201C16.7762 7.75527 17.3181 7.87588 17.8267 8.08214C18.1029 8.19226 18.1886 8.49117 18.3092 8.73239L18.3494 8.77259C18.3896 9.0715 18.3616 9.37565 18.3738 9.67456C18.3564 10.5713 18.3896 11.4732 18.3494 12.3699C16.6783 12.3699 15.0056 12.3577 13.3328 12.3699C13.3048 12.4731 13.3555 12.5605 13.4656 12.5308C15.2695 12.5185 17.0681 12.543 18.8738 12.5133C21.5569 12.5133 24.2347 12.5133 26.9143 12.5133L26.9545 12.4958C27.0763 12.5166 27.2001 12.5225 27.3233 12.5133C32.185 12.5133 37.0483 12.5133 41.9135 12.5133C43.4429 12.5133 44.9776 12.5133 46.5123 12.5133C49.0398 12.5133 51.5814 12.536 54.1037 12.5255C54.1683 12.5133 54.1911 12.4608 54.1613 12.3699ZM24.2714 8.93866C24.3364 8.78216 24.439 8.64413 24.5701 8.5368C24.7012 8.42946 24.8568 8.35615 25.023 8.32336C25.6558 8.17478 26.362 8.73763 26.3113 9.39837C26.3049 9.55602 26.2645 9.71043 26.1928 9.85098C26.1212 9.99153 26.0199 10.1149 25.896 10.2125C25.772 10.3102 25.6285 10.3799 25.4751 10.4168C25.3216 10.4536 25.1621 10.4569 25.0073 10.4262C24.7483 10.3533 24.5201 10.198 24.3571 9.98395C24.2553 9.83124 24.1942 9.6551 24.1795 9.47218C24.1648 9.28927 24.1971 9.10564 24.2732 8.93866H24.2714ZM41.4188 8.6852C41.5502 8.53597 41.7193 8.42479 41.9085 8.3633C42.0976 8.3018 42.2997 8.29223 42.4938 8.3356C42.7001 8.3892 42.8859 8.50283 43.0275 8.6621C43.1692 8.82136 43.2604 9.0191 43.2896 9.23025C43.3188 9.44141 43.2847 9.65648 43.1916 9.84822C43.0984 10.04 42.9505 10.1997 42.7665 10.3073C42.5519 10.4192 42.3067 10.4578 42.0682 10.4174C41.8296 10.377 41.6108 10.2598 41.445 10.0836C41.2787 9.88985 41.1852 9.64411 41.1807 9.3888C41.1763 9.13349 41.2611 8.88463 41.4205 8.6852H41.4188Z" fill="url(#paint1_radial_1870_2115)" stroke="#FCD109" stroke-width="0.175588"/>
<path d="M42.8874 14.896C42.9678 14.9118 42.4696 14.4153 42.5675 14.3926C42.6584 14.4048 43.008 14.1339 43.4292 14.3542C43.8505 14.5744 43.7456 15.0918 43.6984 15.2841C43.6405 15.4734 43.5302 15.6425 43.3803 15.7718C43.2984 15.8419 43.1973 15.8858 43.0901 15.8976C43.1408 15.6162 42.9748 15.5708 42.9643 15.2841L42.8874 14.896Z" fill="url(#paint2_linear_1870_2115)" stroke="#FCD109" stroke-width="0.175588"/>
<path d="M24.5164 15.2018C24.506 15.4884 24.3417 15.5356 24.3906 15.8171C24.2831 15.8034 24.1817 15.7591 24.0987 15.6895C23.9494 15.56 23.8397 15.3909 23.7823 15.2018C23.7351 15.0095 23.6302 14.5026 24.0515 14.2718C24.4728 14.0411 24.8223 14.3225 24.9132 14.3103C25.0111 14.333 24.5129 14.8347 24.5916 14.8137L24.5164 15.2018Z" fill="url(#paint3_linear_1870_2115)" stroke="#FCD109" stroke-width="0.175588"/>
<path d="M42.1348 18.5771C42.1697 18.5463 42.211 18.5236 42.2557 18.5106C42.3005 18.4976 42.3475 18.4947 42.3935 18.5019C41.6943 19.9965 40.899 21.4892 39.6894 22.6534C39.5608 22.7696 39.4241 22.8764 39.2804 22.9733C39.1423 23.0747 39.006 23.1708 38.8714 23.2669C38.7368 23.3631 38.6074 23.4505 38.4798 23.5484C38.153 23.7232 37.8645 23.9731 37.5027 24.0815C36.8335 24.3915 36.1292 24.6193 35.4052 24.7597C35.1236 24.8208 34.8379 24.8611 34.5504 24.8803C34.2009 24.9835 33.8146 24.9101 33.4527 24.9328C33.25 24.9677 33.0734 24.8524 32.8777 24.8751C32.7029 24.8506 32.5386 24.8227 32.3707 24.7894C32.2029 24.7562 32.0317 24.7143 31.8621 24.6688C29.2279 23.8455 26.6427 21.8353 25.8894 19.1137C25.8542 18.9311 25.8366 18.7456 25.8369 18.5596C25.9173 18.7204 26.0012 18.8795 26.0869 19.0386C27.1601 21.3756 29.2856 23.2145 31.7974 23.7686C32.0019 23.8613 32.2222 23.8298 32.4179 23.9102C32.5943 23.898 32.7715 23.9151 32.9423 23.9609C33.5349 23.9731 34.1257 23.9609 34.7182 23.9609C34.799 23.9558 34.8785 23.9387 34.9542 23.9102C35.9425 23.8623 36.9118 23.6206 37.8069 23.1988C37.9817 23.1184 38.1565 23.024 38.3313 22.9383C38.5061 22.8527 38.6337 22.7635 38.7787 22.6779C38.9238 22.5922 39.0602 22.4873 39.193 22.3842C40.2853 21.5246 41.1756 20.4356 41.8009 19.1941C41.9303 18.9739 42.0386 18.7641 42.1348 18.5771Z" fill="#BDA727" stroke="#BDA727" stroke-width="0.175588"/>
<path d="M41.1983 23.6846C42.9043 22.6848 44.883 22.2023 46.8477 22.1114C47.4881 22.0542 48.1329 22.0677 48.7704 22.1516C49.1847 22.2478 49.6094 22.3631 49.9363 22.6445C49.7689 22.6329 49.6032 22.6042 49.4417 22.5589C48.9661 22.4951 48.486 22.4723 48.0066 22.4907C46.6168 22.4627 45.2298 22.6268 43.8849 22.9784C43.1759 23.1761 42.4916 23.4535 41.8451 23.8052C40.7387 24.4121 39.7548 25.2194 38.9435 26.186C37.5067 27.8343 36.6711 29.9267 36.2534 32.0592C36.0576 33.2024 35.8339 34.3403 35.6556 35.4887C35.3647 35.5079 35.073 35.512 34.7816 35.501C33.5161 35.501 32.2518 35.4934 30.9886 35.4782C30.7176 35.4887 30.4537 35.4258 30.1845 35.4433C27.8842 35.4555 25.5857 35.4433 23.2871 35.4433L23.3343 35.4258C25.0403 35.251 26.7533 35.0465 28.4593 34.8787C30.6267 34.8682 32.7872 34.8787 34.9529 34.8787C35.0228 34.8682 35.1434 34.9032 35.1539 34.8053C35.3287 33.8736 35.5035 32.9437 35.6783 32.0085C35.912 30.7067 36.3299 29.4448 36.9194 28.2608C37.8751 26.3551 39.361 24.766 41.1983 23.6846Z" fill="#0D69B3" stroke="#0D69B3" stroke-width="0.175588"/>
<path d="M43.8743 22.9787C45.2186 22.6273 46.605 22.4632 47.9942 22.491C48.4736 22.4726 48.9538 22.4954 49.4293 22.5592C49.5908 22.6045 49.7566 22.6332 49.9239 22.6449C50.1815 22.8778 50.3722 23.1753 50.4763 23.5066C50.7259 24.2752 50.9072 25.0642 51.0182 25.8647C51.0182 26.188 51.0811 26.5499 50.908 26.8418C50.735 27.1337 50.4256 27.2683 50.1215 27.3539C49.0115 27.6406 47.8491 27.3714 46.7427 27.6406C45.8199 27.835 44.9918 28.3404 44.3969 29.0722C43.7135 29.9217 43.3482 30.9793 43.1506 32.0438C42.9951 32.9877 42.8011 33.9298 42.6455 34.8773C42.58 35.0961 42.5298 35.3192 42.4952 35.545C43.5806 35.5625 44.6679 35.545 45.7533 35.5555C46.1676 35.545 46.5819 35.5677 46.9944 35.538C47.2251 36.0624 47.1692 36.6654 47.0993 37.2231C47.0202 37.8537 46.8432 38.4682 46.5749 39.0445C46.466 39.2978 46.307 39.5265 46.1076 39.7169C45.9082 39.9074 45.6723 40.0556 45.4142 40.1527C45.1313 40.2378 44.8345 40.2675 44.5403 40.2401C43.5737 40.2401 42.6175 40.2506 41.6439 40.2401C41.4883 40.9393 41.3852 41.6699 41.2471 42.3883C40.9937 43.7867 40.7472 45.1851 40.4938 46.5835C40.4938 46.629 40.4833 46.7268 40.4833 46.7793C37.9715 46.7793 35.4667 46.7793 32.9549 46.7793C32.9549 46.7566 32.9654 46.7164 32.9723 46.6919C32.9793 46.6674 32.9828 46.601 32.9898 46.566C32.9898 46.6132 33.0003 46.6989 33.0056 46.7408C33.1611 46.7583 33.4425 46.8387 33.4827 46.615C33.8743 44.4999 34.2361 42.3726 34.6381 40.2576C34.4807 40.2252 34.3184 40.2252 34.161 40.2576C34.1382 40.338 34.1155 40.4184 34.0875 40.4988C34.098 40.4131 34.1103 40.324 34.1208 40.2401C32.5581 40.2401 30.9884 40.2401 29.4258 40.2401C29.0465 40.2278 28.6567 40.2401 28.2774 40.1929C27.6271 40.1649 26.9716 40.1929 26.3232 40.1247C25.5191 40.1247 24.7203 40.0495 23.9145 40.0495C23.2835 39.9866 22.6455 40.0093 22.0075 39.9814C21.5932 39.9289 21.1685 39.9517 20.7489 39.9342C20.0655 39.8608 19.3698 39.9115 18.6864 39.838C17.961 39.838 17.2373 39.7804 16.5137 39.7629C16.5195 39.7521 16.5231 39.7402 16.5242 39.7279C16.7654 39.7279 17.0013 39.7174 17.2426 39.7104C17.7774 39.6423 18.3176 39.6877 18.8524 39.6125C19.41 39.6125 19.9606 39.5391 20.5182 39.5391C21.0129 39.4692 21.5128 39.5094 22.0075 39.4412C22.5878 39.4412 23.1559 39.3661 23.7362 39.3608C24.2134 39.2979 24.6958 39.3311 25.173 39.2682C25.7306 39.2682 26.2829 39.1878 26.8405 39.193C27.3859 39.1301 27.9435 39.1476 28.4889 39.0899C28.4382 38.8766 28.398 38.6651 28.3508 38.4519C28.3106 38.3208 28.1498 38.3488 28.0466 38.3313C26.7998 38.153 25.5564 37.9782 24.3165 37.8069C24.3987 37.7422 24.507 37.7719 24.5997 37.7597C25.5645 37.6863 26.5224 37.5989 27.489 37.5307C27.7075 37.5185 27.9208 37.4783 28.1393 37.473C28.0624 37.1665 27.9661 36.8653 27.8509 36.5711C25.7883 36.2547 23.7257 35.9732 21.6684 35.6341C22.2032 35.5485 22.7434 35.5083 23.2765 35.4506C25.5768 35.4506 27.8753 35.4681 30.1739 35.4506C30.4431 35.4331 30.6983 35.496 30.9779 35.4856C32.2411 35.496 33.5055 35.5036 34.771 35.5083C35.0623 35.5193 35.354 35.5152 35.645 35.496C35.8198 34.3476 36.047 33.2097 36.2428 32.0648C36.6518 29.934 37.496 27.8416 38.9328 26.1915C39.7447 25.226 40.7285 24.4193 41.8344 23.8125C42.4807 23.4584 43.165 23.1787 43.8743 22.9787Z" fill="#107BD4" stroke="#107BD4" stroke-width="0.175588"/>
<path d="M42.6448 34.8684C43.7355 34.8684 44.8332 34.8684 45.9309 34.8684C46.152 34.8642 46.3697 34.9236 46.5581 35.0394C46.7465 35.1553 46.8977 35.3229 46.9937 35.5221C46.5811 35.5518 46.1669 35.5221 45.7526 35.5396C44.6671 35.5291 43.5799 35.5396 42.4944 35.5291C42.5293 35.3057 42.5796 35.0849 42.6448 34.8684ZM34.1672 40.2539C34.3246 40.2216 34.487 40.2216 34.6444 40.2539C34.2424 42.369 33.8806 44.4963 33.489 46.6113C33.4488 46.8351 33.1674 46.7547 33.0118 46.7372C33.0118 46.697 33.0013 46.6113 32.9961 46.5624C33.3579 44.54 33.7075 42.5106 34.092 40.4881C34.1218 40.4147 34.1445 40.3343 34.1672 40.2539Z" fill="#0D69B3" stroke="#0D69B3" stroke-width="0.175588"/>
<path d="M43.1493 15.0571C43.1098 14.9663 43.0924 14.8674 43.0987 14.7686H43.0515C43.0222 14.6369 42.9529 14.5175 42.853 14.4268C42.7532 14.336 42.6278 14.2784 42.4939 14.2617C42.2876 14.2442 42.0289 14.2512 41.9083 14.4365C41.6793 14.7477 41.7877 15.1445 41.7755 15.4941C41.7755 15.5185 41.7755 15.5587 41.7755 15.5815C41.7725 15.8161 41.7491 16.0501 41.7055 16.2806C41.6718 16.3504 41.6544 16.4269 41.6548 16.5044C41.5521 17.0513 41.3639 17.5787 41.0973 18.0671C41.0445 18.1326 41.0069 18.209 40.9871 18.2908C40.8093 18.5874 40.6119 18.8718 40.3963 19.1421C40.3624 19.1717 40.3313 19.2044 40.3037 19.24C40.158 19.4189 40.0009 19.5882 39.8335 19.7469C39.7978 19.7701 39.7634 19.7952 39.7304 19.8221C39.5332 20.0151 39.3158 20.1862 39.0819 20.3325C39.0522 20.35 39.0242 20.3727 38.9892 20.3954C37.5175 21.3673 35.7311 21.7693 33.9901 21.7938C32.5049 21.8367 31.0309 21.5251 29.6901 20.8848C29.6674 20.8744 29.6097 20.8516 29.587 20.8394C29.3585 20.7298 29.1378 20.6049 28.9263 20.4653C28.8808 20.4426 28.8337 20.4146 28.783 20.3919C28.5704 20.2668 28.3687 20.1242 28.1799 19.9654C28.1152 19.9095 28.0471 19.8623 27.9789 19.8116C27.7649 19.6459 27.565 19.463 27.3811 19.2645L27.243 19.1211C26.6092 18.4727 26.1384 17.6831 25.8691 16.8173C25.6227 16.1321 25.6559 15.3857 25.6279 14.6673C25.4199 14.3509 24.9847 14.1726 24.6386 14.3684C24.4952 14.4715 24.4778 14.662 24.3694 14.7931C24.1946 16.6897 25.0022 18.581 26.2921 19.9497C26.2919 19.9697 26.298 19.9893 26.3096 20.0057C26.3212 20.022 26.3378 20.0342 26.3568 20.0406C26.5858 20.2538 26.8095 20.4723 27.0403 20.6786C27.0824 20.7215 27.1286 20.7601 27.1783 20.7939C27.4073 20.9827 27.6555 21.1558 27.8968 21.3341C27.9419 21.3684 27.9898 21.3988 28.0401 21.425C28.3425 21.6269 28.6618 21.8024 28.9945 21.9494C29.0218 21.9704 29.0504 21.9896 29.0801 22.007C30.1719 22.5393 31.3487 22.8759 32.5568 23.0016C32.6901 23.0003 32.8232 23.0138 32.9536 23.0419C33.5286 23.0751 34.102 23.0593 34.677 23.0419C36.453 22.8863 38.2866 22.4563 39.7688 21.4092L39.7863 21.432C39.8317 21.3918 39.8719 21.3585 39.9191 21.3236C40.1534 21.1488 40.3841 20.974 40.6183 20.7782C40.675 20.7353 40.7293 20.6892 40.7809 20.6401C41.0541 20.377 41.3076 20.0942 41.5395 19.7941L41.5727 19.8116C41.5902 19.7836 41.6199 19.7259 41.6374 19.6962C41.8314 19.4323 42.0097 19.1561 42.1827 18.8816C42.1932 18.8642 42.2229 18.8344 42.2334 18.817L42.2107 18.7942L42.2859 18.7034C42.6257 18.0685 42.8617 17.3834 42.985 16.6739C43.0037 16.6668 43.0198 16.6541 43.0311 16.6375C43.0423 16.6209 43.0482 16.6013 43.048 16.5813C43.0828 16.3573 43.1038 16.1314 43.1109 15.9048C43.1545 15.6245 43.1674 15.3402 43.1493 15.0571Z" fill="white" stroke="white" stroke-width="0.175588"/>
<mask id="mask0_1870_2115" style="mask-type:luminance" maskUnits="userSpaceOnUse" x="24" y="14" width="20" height="10">
<path d="M43.1454 15.0566C43.1058 14.9658 43.0885 14.867 43.0947 14.7681H43.0476C43.0183 14.6364 42.949 14.517 42.8491 14.4263C42.7493 14.3355 42.6239 14.2779 42.49 14.2612C42.2837 14.2438 42.025 14.2507 41.9044 14.436C41.6754 14.7472 41.7838 15.144 41.7715 15.4936C41.7715 15.518 41.7715 15.5582 41.7715 15.581C41.7686 15.8156 41.7452 16.0496 41.7016 16.2802C41.6679 16.3499 41.6505 16.4264 41.6509 16.5039C41.5482 17.0508 41.36 17.5782 41.0934 18.0666C41.0406 18.1321 41.003 18.2085 40.9832 18.2903C40.8054 18.5869 40.608 18.8713 40.3924 19.1416C40.3585 19.1712 40.3274 19.204 40.2998 19.2395C40.1541 19.4184 39.997 19.5877 39.8296 19.7464C39.7939 19.7696 39.7595 19.7947 39.7265 19.8216C39.5293 20.0146 39.3119 20.1857 39.078 20.332C39.0482 20.3495 39.0203 20.3722 38.9853 20.3949C37.5135 21.3668 35.7271 21.7688 33.9862 21.7933C32.501 21.8362 31.027 21.5246 29.6862 20.8844C29.6635 20.8739 29.6058 20.8511 29.5831 20.8389C29.3546 20.7294 29.1339 20.6044 28.9224 20.4648C28.8769 20.4421 28.8297 20.4141 28.7791 20.3914C28.5665 20.2663 28.3648 20.1237 28.176 19.9649C28.1113 19.909 28.0432 19.8618 27.975 19.8111C27.761 19.6455 27.5611 19.4625 27.3772 19.264L27.2391 19.1206C26.6053 18.4722 26.1344 17.6826 25.8652 16.8168C25.6188 16.1316 25.652 15.3852 25.624 14.6668C25.416 14.3504 24.9808 14.1721 24.6347 14.3679C24.4913 14.471 24.4739 14.6615 24.3655 14.7926C24.1907 16.6892 24.9982 18.5805 26.2882 19.9492C26.288 19.9692 26.2941 19.9889 26.3057 20.0052C26.3173 20.0215 26.3339 20.0338 26.3529 20.0401C26.5819 20.2533 26.8056 20.4718 27.0363 20.6781C27.0785 20.721 27.1247 20.7596 27.1744 20.7935C27.4034 20.9822 27.6516 21.1553 27.8928 21.3336C27.938 21.3679 27.9859 21.3983 28.0362 21.4245C28.3386 21.6264 28.6579 21.8019 28.9906 21.9489C29.0179 21.9699 29.0465 21.9891 29.0762 22.0066C30.168 22.5388 31.3447 22.8754 32.5529 23.0012C32.6862 22.9998 32.8193 23.0133 32.9497 23.0414C33.5247 23.0746 34.0981 23.0588 34.6731 23.0414C36.449 22.8858 38.2826 22.4558 39.7649 21.4087L39.7824 21.4315C39.8278 21.3913 39.868 21.3581 39.9152 21.3231C40.1495 21.1483 40.3802 20.9735 40.6144 20.7777C40.6711 20.7348 40.7254 20.6887 40.777 20.6396C41.0501 20.3765 41.3037 20.0938 41.5356 19.7936L41.5688 19.8111C41.5863 19.7831 41.616 19.7254 41.6335 19.6957C41.8275 19.4318 42.0058 19.1556 42.1788 18.8812C42.1893 18.8637 42.219 18.834 42.2295 18.8165L42.2068 18.7938L42.282 18.7029C42.6218 18.068 42.8578 17.3829 42.9811 16.6735C42.9998 16.6663 43.0159 16.6536 43.0271 16.637C43.0384 16.6205 43.0443 16.6008 43.0441 16.5808C43.0789 16.3568 43.0999 16.1309 43.107 15.9043C43.1506 15.624 43.1635 15.3397 43.1454 15.0566Z" fill="white"/>
</mask>
<g mask="url(#mask0_1870_2115)">
<path d="M23.9238 14.8624C24.3905 15.0075 25.4603 14.6405 25.7627 14.9761M24.193 16.2801C24.6387 16.1245 25.5914 15.7557 25.9934 15.9724M24.6527 17.6977C24.8677 17.7676 25.2942 17.3883 25.5057 17.2764C25.8126 17.1059 26.1458 16.9877 26.4916 16.9268M25.3414 19.1905C25.5623 18.8772 25.8369 18.6056 26.1525 18.3881C26.4706 18.1644 27.3428 17.5701 27.7256 17.7728M25.9934 20.2707C26.2451 20.0697 26.343 19.7149 26.6139 19.5033C26.9355 19.2481 27.4267 19.2027 27.7553 19.0454M27.0754 21.0591C27.1505 20.5032 27.7151 19.8355 28.2535 19.8809M27.9091 21.8439C28.1941 21.8142 28.4335 21.1779 28.6258 20.9699C28.9142 20.6465 29.2131 20.5469 29.5942 20.4333M29.5557 22.5239C29.5382 22.1218 29.9525 20.9699 30.4297 21.0293M30.7828 22.9067C30.7618 22.433 31.0083 21.0031 31.5868 20.9542M32.0465 23.674C31.9364 23.0098 31.9434 22.0484 32.4678 21.566M33.618 23.8261C33.5585 23.2737 33.0079 22.1533 33.618 21.7285M35.303 23.4433C35.0408 23.1392 34.887 21.9383 34.9971 21.6044M36.9128 23.1759C36.7101 22.807 36.4584 22.4627 36.3884 22.0344C36.343 21.7792 36.4234 21.4156 36.3884 21.2216M38.2535 22.6008C37.813 22.3141 37.6924 21.2566 37.8323 20.8004M39.5557 22.0187C39.2428 21.3492 38.909 20.8283 38.9037 20.0645M40.8265 20.7951C40.3406 20.4682 39.7218 19.8739 39.7917 19.2219M42.1602 19.7655C41.4225 19.603 40.5363 18.9422 40.0923 18.3479M42.7737 18.5018C42.2493 18.3881 40.4821 17.7012 40.5905 17.0072M43.3488 17.161C42.6059 16.8884 41.5274 16.6367 40.9349 16.1262M43.7316 15.934C43.2649 15.9742 42.5954 15.7487 42.12 15.6665C41.5956 15.5756 41.1027 15.3973 40.5905 15.2837M43.2736 14.7471C42.3717 14.8013 41.5257 14.4919 40.7076 14.2104" stroke="#D1D1D1" stroke-width="3.90196"/>
</g>
<defs>
<linearGradient id="paint0_linear_1870_2115" x1="33.7485" y1="13.0484" x2="33.7485" y2="46.8265" gradientUnits="userSpaceOnUse">
<stop stop-color="#F7E830"/>
<stop offset="1" stop-color="#FDCB06"/>
</linearGradient>
<radialGradient id="paint1_radial_1870_2115" cx="0" cy="0" r="1" gradientUnits="userSpaceOnUse" gradientTransform="translate(33.5705 28.4549) scale(27.4743 27.4748)">
<stop offset="0.6" stop-color="#F29405"/>
<stop offset="0.74" stop-color="#F7D01E"/>
<stop offset="1" stop-color="#FDCB06"/>
</radialGradient>
<linearGradient id="paint2_linear_1870_2115" x1="43.1478" y1="14.2668" x2="43.1565" y2="15.8662" gradientUnits="userSpaceOnUse">
<stop stop-color="#FADA1C"/>
<stop offset="1" stop-color="#FDCB06"/>
</linearGradient>
<linearGradient id="paint3_linear_1870_2115" x1="24.3329" y1="14.1897" x2="24.3242" y2="15.7891" gradientUnits="userSpaceOnUse">
<stop stop-color="#FADA1C"/>
<stop offset="1" stop-color="#FDCB06"/>
</linearGradient>
</defs>
</svg>
