<svg width="67" height="53" viewBox="0 0 67 53" fill="none" xmlns="http://www.w3.org/2000/svg">
<path fill-rule="evenodd" clip-rule="evenodd" d="M34.3015 46.3262C34.2737 46.3317 34.2465 46.3399 34.2202 46.3506C34.2486 46.3474 34.2761 46.3392 34.3015 46.3262ZM34.0414 46.3914C33.9845 46.3996 33.9113 46.4159 33.8626 46.4241C33.9113 46.4159 33.9764 46.3996 34.0414 46.3914ZM33.7162 46.4322C33.6678 46.4388 33.6188 46.4415 33.5699 46.4404C33.6186 46.4497 33.6689 46.4469 33.7162 46.4322Z" fill="#F37320"/>
<path fill-rule="evenodd" clip-rule="evenodd" d="M33.848 46.4157C33.7992 46.4157 33.7505 46.4238 33.718 46.4238C33.7615 46.4247 33.805 46.422 33.848 46.4157ZM32.6612 46.3751C32.5846 46.3627 32.5086 46.3464 32.4336 46.3263C32.5068 46.3344 32.5799 46.3588 32.6612 46.3751ZM33.2953 46.4482C33.0928 46.4439 32.8913 46.4194 32.6937 46.3751C32.8905 46.4239 33.0925 46.4484 33.2953 46.4482ZM33.5635 46.4401C33.5066 46.4401 33.4334 46.4482 33.3603 46.4482C33.4281 46.4499 33.496 46.4472 33.5635 46.4401ZM46.529 12.6648H46.5209C46.4068 12.6216 46.2851 12.6023 46.1632 12.6079C46.3244 12.6214 46.4831 12.657 46.6347 12.7136C46.598 12.7007 46.5626 12.6844 46.529 12.6648Z" fill="#F15E22"/>
<path fill-rule="evenodd" clip-rule="evenodd" d="M45.714 12.6651H45.7059C45.6681 12.6877 45.6269 12.7042 45.584 12.7141C45.7722 12.6485 45.9701 12.6154 46.1693 12.6161C46.0158 12.5936 45.8592 12.6105 45.714 12.6651Z" fill="#EC008B"/>
<path fill-rule="evenodd" clip-rule="evenodd" d="M50.356 13.9734C50.239 13.9307 50.1147 13.9113 49.9902 13.9163C50.1526 13.922 50.3125 13.9579 50.4617 14.0224C50.4283 14.0024 50.3929 13.986 50.356 13.9734Z" fill="#F15E22"/>
<path fill-rule="evenodd" clip-rule="evenodd" d="M49.5373 13.9656C49.498 13.9928 49.4538 14.0122 49.4072 14.0227C49.5912 13.9509 49.787 13.915 49.9844 13.9166C49.8336 13.8996 49.6809 13.9163 49.5373 13.9656Z" fill="#EC008B"/>
<path fill-rule="evenodd" clip-rule="evenodd" d="M50.5181 14.0553C50.4006 14.015 50.2763 13.9984 50.1523 14.0063C50.3141 14.0097 50.474 14.0429 50.6238 14.1042C50.5832 14.0879 50.5588 14.0716 50.5181 14.0553Z" fill="#F15E22"/>
<path fill-rule="evenodd" clip-rule="evenodd" d="M49.7062 14.0468C49.6656 14.0713 49.6249 14.0795 49.5762 14.104C49.7599 14.0315 49.9559 13.9955 50.1533 13.9979C50.0026 13.988 49.8513 14.0046 49.7062 14.0468Z" fill="#EC008B"/>
<path fill-rule="evenodd" clip-rule="evenodd" d="M19.8995 5.87724H19.9077C19.9402 5.86911 19.9889 5.85286 20.0296 5.84473C16.8024 6.33246 9.64907 17.8429 5.80413 28.4022C1.71533 39.6444 2.69892 45.0663 5.90981 46.245H5.91794C9.12883 47.4075 13.3639 43.8877 17.4609 32.6374C18.5664 29.6053 19.5093 26.3213 20.2572 23.1348C18.2656 14.567 17.8267 6.65761 19.8995 5.87724Z" fill="#F13AB1"/>
<path fill-rule="evenodd" clip-rule="evenodd" d="M32.1819 46.245C28.9548 45.0582 27.9874 39.6282 32.0762 28.4023C32.4827 27.2886 32.9135 26.1587 33.3931 25.045C29.1905 15.0059 22.7118 5.27572 20.0293 5.83661C20.2229 5.81013 20.42 5.82679 20.6064 5.88538H20.6146V5.89351C22.6923 6.66575 22.2485 14.567 20.2537 23.1429C20.9877 26.3627 21.9216 29.5337 23.05 32.6374C26.2771 41.4978 29.5937 45.5541 32.4225 46.3101C32.3398 46.294 32.2584 46.2723 32.1787 46.245" fill="#FD913C"/>
<path fill-rule="evenodd" clip-rule="evenodd" d="M20.6056 5.89329H20.5974C20.4192 5.83583 20.2303 5.81916 20.0447 5.84452C19.9878 5.85264 19.9634 5.8689 19.9146 5.87703H19.9065C17.8336 6.6574 18.2726 14.5668 20.256 23.1345C22.2313 14.5668 22.6784 6.67366 20.6056 5.89329Z" fill="#F05524"/>
<path fill-rule="evenodd" clip-rule="evenodd" d="M45.9351 5.93408C42.9274 7.02335 37.2372 15.9163 33.4004 25.0368C33.8719 26.1505 34.3108 27.2804 34.7173 28.3941C38.8061 39.6281 37.8306 45.0582 34.6116 46.2287V46.2368C34.514 46.2612 34.4084 46.2937 34.3271 46.3181C37.164 45.5865 40.5131 41.5384 43.7321 32.6292C44.8335 29.608 45.7457 26.5212 46.4634 23.3867C44.4719 14.8921 43.9679 6.96644 45.9351 5.93408Z" fill="#FD913C"/>
<path fill-rule="evenodd" clip-rule="evenodd" d="M34.5952 46.2366H34.6033C37.8142 45.0661 38.7897 39.6197 34.709 28.3938C34.2863 27.2802 33.8555 26.1503 33.3759 25.0366C32.9044 26.1503 32.4655 27.2802 32.059 28.3938C27.9702 39.6279 28.9538 45.0661 32.1647 46.2366C32.246 46.2691 32.3354 46.2854 32.4167 46.3098C32.4904 46.3364 32.5667 46.3554 32.6443 46.3667H32.6768C32.8771 46.4126 33.0812 46.4399 33.2865 46.448H33.5466C33.596 46.4445 33.645 46.4363 33.6929 46.4236C33.7498 46.4236 33.7905 46.4155 33.8474 46.4155C33.9043 46.4155 33.953 46.3911 34.0181 46.3829C34.0842 46.3807 34.1498 46.3698 34.2132 46.3504C34.2457 46.3504 34.2701 46.3423 34.2944 46.3423C34.4001 46.3017 34.4977 46.2773 34.5952 46.2366Z" fill="#F05524"/>
<path fill-rule="evenodd" clip-rule="evenodd" d="M46.961 5.92578C48.9526 6.9175 48.4567 14.8512 46.457 23.4028C47.1773 26.5304 48.0867 29.6115 49.1802 32.629C53.2771 43.8712 57.5122 47.3991 60.7394 46.2367H60.7475C63.9503 45.0499 64.9339 39.6361 60.8451 28.3939C57.1302 18.1922 50.3312 7.11259 46.961 5.92578Z" fill="#F13AB1"/>
<path fill-rule="evenodd" clip-rule="evenodd" d="M46.9593 5.92599C46.8074 5.87069 46.6489 5.83518 46.4879 5.82031C46.2902 5.82963 46.0953 5.87081 45.9107 5.94225C43.9598 6.97461 44.4475 14.884 46.4472 23.403C48.4632 14.8596 48.9509 6.92583 46.9593 5.92599Z" fill="#F05524"/>
</svg>
