<svg width="54" height="54" viewBox="0 0 54 54" fill="none" xmlns="http://www.w3.org/2000/svg">
<path d="M7.13281 16.74L27.0003 28.2375L46.7328 16.8074" stroke="#141313" stroke-width="2" stroke-linecap="round" stroke-linejoin="round"/>
<path d="M27 48.6225V28.215" stroke="#141313" stroke-width="2" stroke-linecap="round" stroke-linejoin="round"/>
<path d="M22.3429 5.58L10.3279 12.2626C7.60539 13.7701 5.37793 17.55 5.37793 20.655V33.3676C5.37793 36.4726 7.60539 40.2525 10.3279 41.76L22.3429 48.4426C24.9079 49.8601 29.1154 49.8601 31.6804 48.4426L43.6954 41.76C46.4179 40.2525 48.6454 36.4726 48.6454 33.3676V20.655C48.6454 17.55 46.4179 13.7701 43.6954 12.2626L31.6804 5.58C29.0929 4.14 24.9079 4.14 22.3429 5.58Z" stroke="#141313" stroke-width="2" stroke-linecap="round" stroke-linejoin="round"/>
<path d="M38.2499 29.79V21.5551L16.8975 9.22498" stroke="#141313" stroke-width="2" stroke-linecap="round" stroke-linejoin="round"/>
</svg>
