<svg width="54" height="54" viewBox="0 0 54 54" fill="none" xmlns="http://www.w3.org/2000/svg">
<path d="M47.8125 38.5312C47.8125 32.4195 45.2132 26.9149 41.0599 23.0625M5.625 38.5312C5.625 26.8815 15.069 17.4375 26.7188 17.4375C27.5754 17.4375 28.4201 17.4886 29.25 17.5878" stroke="#141313" stroke-width="2.25" stroke-linecap="round"/>
<path d="M47.8125 38.5312C47.8125 32.4195 45.2132 26.9149 41.0599 23.0625M5.625 38.5312C5.625 26.8815 15.069 17.4375 26.7188 17.4375C27.5754 17.4375 28.4201 17.4886 29.25 17.5878" stroke="#141313" stroke-width="2" stroke-linecap="round"/>
<path d="M31.6703 36.6531C31.3496 37.599 30.7699 38.436 29.9971 39.0687C26.5378 41.9006 21.4143 38.9427 22.1373 34.5309C22.2988 33.5452 22.7338 32.6246 23.3926 31.8739L37.6579 15.6209C38.0638 15.1584 38.8109 15.5898 38.6134 16.1725L31.6703 36.6531Z" stroke="#141313" stroke-width="2"/>
</svg>
