<svg width="54" height="54" viewBox="0 0 54 54" fill="none" xmlns="http://www.w3.org/2000/svg">
<path d="M41.3438 18.5625H36.2812V13.5H44.7188C45.8372 13.4987 46.9095 13.0538 47.7004 12.2629C48.4913 11.472 48.9362 10.3997 48.9375 9.28125V8.4375C48.9375 8.21372 48.8486 7.99911 48.6904 7.84088C48.5321 7.68265 48.3175 7.59375 48.0938 7.59375H5.90625C5.68247 7.59375 5.46786 7.68265 5.30963 7.84088C5.1514 7.99911 5.0625 8.21372 5.0625 8.4375V9.28125C5.06384 10.3997 5.50874 11.472 6.29962 12.2629C7.0905 13.0538 8.16278 13.4987 9.28125 13.5H17.7188V18.5625H12.6562C9.74819 18.5658 6.96019 19.7226 4.90387 21.7789C2.84756 23.8352 1.69085 26.6232 1.6875 29.5312V41.3438C1.68996 43.357 2.4908 45.2871 3.91437 46.7106C5.33794 48.1342 7.26802 48.935 9.28125 48.9375H10.125V50.625C10.125 51.0726 10.3028 51.5018 10.6193 51.8182C10.9357 52.1347 11.3649 52.3125 11.8125 52.3125H15.1875C15.6351 52.3125 16.0643 52.1347 16.3807 51.8182C16.6972 51.5018 16.875 51.0726 16.875 50.625V48.9375H37.125V50.625C37.125 51.0726 37.3028 51.5018 37.6193 51.8182C37.9357 52.1347 38.3649 52.3125 38.8125 52.3125H42.1875C42.6351 52.3125 43.0643 52.1347 43.3807 51.8182C43.6972 51.5018 43.875 51.0726 43.875 50.625V48.9375H44.7188C46.732 48.935 48.6621 48.1342 50.0856 46.7106C51.5092 45.2871 52.31 43.357 52.3125 41.3438V29.5312C52.3092 26.6232 51.1524 23.8352 49.0961 21.7789C47.0398 19.7226 44.2518 18.5658 41.3438 18.5625ZM34.5938 18.5625H32.9062V13.5H34.5938V18.5625ZM22.7812 18.5625V13.5H31.2188V18.5625H22.7812ZM6.75 9.28125H47.25C47.25 9.95258 46.9833 10.5964 46.5086 11.0711C46.0339 11.5458 45.3901 11.8125 44.7188 11.8125H9.28125C8.60992 11.8125 7.96609 11.5458 7.49139 11.0711C7.01668 10.5964 6.75 9.95258 6.75 9.28125ZM19.4062 13.5H21.0938V18.5625H19.4062V13.5ZM15.1875 50.625H11.8125V48.9375H15.1875V50.625ZM42.1875 50.625H38.8125V48.9375H42.1875V50.625ZM50.625 41.3438C50.6232 42.9096 50.0004 44.4109 48.8931 45.5181C47.7859 46.6254 46.2846 47.2482 44.7188 47.25H9.28125C7.71536 47.2482 6.21412 46.6254 5.10687 45.5181C3.99962 44.4109 3.37679 42.9096 3.375 41.3438V29.5312C3.3779 27.0706 4.35668 24.7116 6.09662 22.9716C7.83656 21.2317 10.1956 20.2529 12.6562 20.25H41.3438C43.8044 20.2529 46.1634 21.2317 47.9034 22.9716C49.6433 24.7116 50.6221 27.0706 50.625 29.5312V41.3438Z" fill="#141313"/>
<path d="M27 23.625C24.9975 23.625 23.0399 24.2188 21.3749 25.3314C19.7098 26.4439 18.4121 28.0252 17.6457 29.8753C16.8794 31.7254 16.6789 33.7612 17.0696 35.7253C17.4602 37.6893 18.4245 39.4935 19.8405 40.9095C21.2566 42.3255 23.0607 43.2898 25.0247 43.6805C26.9888 44.0711 29.0246 43.8706 30.8747 43.1043C32.7248 42.3379 34.3061 41.0402 35.4186 39.3752C36.5312 37.7101 37.125 35.7525 37.125 33.75C37.1221 31.0656 36.0544 28.4919 34.1563 26.5938C32.2581 24.6956 29.6844 23.6279 27 23.625ZM27 42.1875C24.9091 42.1849 22.8935 41.407 21.343 40.0043C19.7924 38.6017 18.8171 36.6739 18.6055 34.5938H20.25V32.9063H18.6055C18.8026 30.9708 19.6614 29.1627 21.0371 27.7871C22.4127 26.4114 24.2208 25.5526 26.1563 25.3555V27H27.8438V25.3555C29.7792 25.5526 31.5873 26.4114 32.9629 27.7871C34.3386 29.1627 35.1974 30.9708 35.3945 32.9063H33.75V34.5938H35.3945C35.1829 36.6739 34.2076 38.6017 32.657 40.0043C31.1065 41.407 29.0909 42.1849 27 42.1875Z" fill="#141313"/>
<path d="M27.8438 32.2971V28.6875H26.1563V32.2971C25.8345 32.4828 25.5831 32.7695 25.441 33.1127C25.2988 33.4559 25.2739 33.8364 25.37 34.1952C25.4661 34.5541 25.678 34.8711 25.9727 35.0973C26.2674 35.3234 26.6285 35.446 27 35.446C27.3715 35.446 27.7326 35.3234 28.0273 35.0973C28.322 34.8711 28.5339 34.5541 28.63 34.1952C28.7261 33.8364 28.7012 33.4559 28.559 33.1127C28.4169 32.7695 28.1655 32.4828 27.8438 32.2971Z" fill="#141313"/>
</svg>
