<svg width="24" height="24" viewBox="0 0 24 24" fill="none" xmlns="http://www.w3.org/2000/svg">
<path d="M14.9998 9L12.5 11.4998M14.9998 9V6L17.9998 3V6H20.9998L17.9998 9H14.9998Z" stroke="currentColor" stroke-width="1.5" stroke-linecap="round" stroke-linejoin="round"/>
<path d="M12.3302 3H12C10.22 3 8.47991 3.52784 6.99987 4.51677C5.51983 5.50571 4.36628 6.91131 3.68509 8.55585C3.0039 10.2004 2.82567 12.01 3.17294 13.7558C3.5202 15.5016 4.37737 17.1053 5.63604 18.364C6.89472 19.6226 8.49836 20.4798 10.2442 20.8271C11.99 21.1743 13.7996 20.9961 15.4442 20.3149C17.0887 19.6337 18.4943 18.4802 19.4832 17.0001C20.4722 15.5201 21 13.78 21 12V11.6702" stroke="currentColor" stroke-width="1.5" stroke-linecap="round" stroke-linejoin="round"/>
<path d="M16.8992 12.9998C16.7184 13.8848 16.3013 14.7043 15.6921 15.3713C15.0829 16.0382 14.3044 16.5277 13.4393 16.7877C12.5743 17.0477 11.6549 17.0685 10.779 16.8478C9.90305 16.6272 9.10324 16.1735 8.46451 15.5348C7.82579 14.896 7.37202 14.0962 7.15141 13.2203C6.93081 12.3443 6.9516 11.425 7.21159 10.5599C7.47158 9.69487 7.96105 8.91639 8.628 8.3072C9.29495 7.69801 10.1145 7.28087 10.9995 7.1001" stroke="currentColor" stroke-width="1.5" stroke-linecap="round" stroke-linejoin="round"/>
</svg>
