<svg width="24" height="24" viewBox="0 0 24 24" fill="none" xmlns="http://www.w3.org/2000/svg">
<path d="M16 2V6M8 2V6M21 12C21 8.229 21 6.343 19.828 5.172C18.656 4.001 16.771 4 13 4H11C7.229 4 5.343 4 4.172 5.172C3.001 6.344 3 8.229 3 12V14C3 17.771 3 19.657 4.172 20.828C5.344 21.999 7.229 22 11 22M3 10H21" stroke="currentColor" stroke-width="1.5" stroke-linecap="round" stroke-linejoin="round"/>
<path d="M18.267 18.701L17 18V16.267M21 18C21 19.0609 20.5786 20.0783 19.8284 20.8284C19.0783 21.5786 18.0609 22 17 22C15.9391 22 14.9217 21.5786 14.1716 20.8284C13.4214 20.0783 13 19.0609 13 18C13 16.9391 13.4214 15.9217 14.1716 15.1716C14.9217 14.4214 15.9391 14 17 14C18.0609 14 19.0783 14.4214 19.8284 15.1716C20.5786 15.9217 21 16.9391 21 18Z" stroke="currentColor" stroke-width="1.5" stroke-linecap="round" stroke-linejoin="round"/>
</svg>
