<svg width="24" height="24" viewBox="0 0 24 24" fill="none" xmlns="http://www.w3.org/2000/svg">
<path d="M9 11.0002L11.0002 12.9998L15 9" stroke="currentColor" stroke-width="1.5" stroke-linecap="round" stroke-linejoin="round"/>
<path d="M11.9992 21L12.879 20.6198C14.7238 19.8282 16.3169 18.5469 17.4856 16.9147C18.6543 15.2825 19.3541 13.3616 19.5093 11.3602L19.9394 5.84016C19.9464 5.61156 19.8747 5.38748 19.7363 5.2054C19.5979 5.02332 19.4012 4.89427 19.179 4.83984L11.9992 3L4.81937 4.8C4.59731 4.85441 4.40066 4.98339 4.26227 5.16537C4.12389 5.34735 4.05215 5.57132 4.05905 5.79984L4.48913 11.3198C4.64421 13.3214 5.34401 15.2424 6.51273 16.8746C7.68144 18.5069 9.27451 19.7883 11.1194 20.58L11.9992 21Z" stroke="currentColor" stroke-width="1.5" stroke-linecap="round" stroke-linejoin="round"/>
</svg>
