<svg width="24" height="24" viewBox="0 0 24 24" fill="none" xmlns="http://www.w3.org/2000/svg">
<path d="M19 20.75C19.2652 20.75 19.5196 20.6446 19.7071 20.4571C19.8946 20.2696 20 20.0152 20 19.75V18.504C20.004 15.698 16.026 13.5 12 13.5C7.974 13.5 4 15.698 4 18.504V19.75C4 20.0152 4.10536 20.2696 4.29289 20.4571C4.48043 20.6446 4.73478 20.75 5 20.75H19ZM15.604 6.854C15.604 7.32728 15.5108 7.79593 15.3297 8.23319C15.1485 8.67045 14.8831 9.06775 14.5484 9.40241C14.2138 9.73707 13.8164 10.0025 13.3792 10.1837C12.9419 10.3648 12.4733 10.458 12 10.458C11.5267 10.458 11.0581 10.3648 10.6208 10.1837C10.1836 10.0025 9.78625 9.73707 9.45159 9.40241C9.11692 9.06775 8.85146 8.67045 8.67034 8.23319C8.48922 7.79593 8.396 7.32728 8.396 6.854C8.396 5.89816 8.77571 4.98147 9.45159 4.30559C10.1275 3.62971 11.0442 3.25 12 3.25C12.9558 3.25 13.8725 3.62971 14.5484 4.30559C15.2243 4.98147 15.604 5.89816 15.604 6.854Z" stroke="currentColor" stroke-width="1.5" stroke-linecap="round" stroke-linejoin="round"/>
</svg>
