<svg width="24" height="24" viewBox="0 0 24 24" fill="none" xmlns="http://www.w3.org/2000/svg">
<path d="M2 12C2 7.286 2 4.929 3.464 3.464C4.93 2 7.286 2 12 2C16.714 2 19.071 2 20.535 3.464C22 4.93 22 7.286 22 12C22 16.714 22 19.071 20.535 20.535C19.072 22 16.714 22 12 22C7.286 22 4.929 22 3.464 20.535C2 19.072 2 16.714 2 12Z" stroke="currentColor" stroke-width="1.5"/>
<path d="M7 10L9.293 12.293C9.48053 12.4805 9.73484 12.5858 10 12.5858C10.2652 12.5858 10.5195 12.4805 10.707 12.293L12.293 10.707C12.4805 10.5195 12.7348 10.4142 13 10.4142C13.2652 10.4142 13.5195 10.5195 13.707 10.707L17 14M17 14V11.5M17 14H14.5" stroke="currentColor" stroke-width="1.5" stroke-linecap="round" stroke-linejoin="round"/>
</svg>
