<svg width="24" height="24" viewBox="0 0 24 24" fill="none" xmlns="http://www.w3.org/2000/svg">
<path d="M17.7321 12.0041V6.26807H11.9961" stroke="currentColor" stroke-width="1.5" stroke-linecap="round" stroke-linejoin="round"/>
<path d="M12.0061 17.298H19.2511C19.7816 17.298 20.2903 17.0873 20.6653 16.7122C21.0404 16.3371 21.2511 15.8284 21.2511 15.298V4.75C21.2511 4.21957 21.0404 3.71086 20.6653 3.33579C20.2903 2.96071 19.7816 2.75 19.2511 2.75H8.70312C8.17269 2.75 7.66398 2.96071 7.28891 3.33579C6.91384 3.71086 6.70313 4.21957 6.70312 4.75V11.995M17.7331 6.268L7.58462 16.4165" stroke="currentColor" stroke-width="1.5" stroke-linecap="round" stroke-linejoin="round"/>
<path d="M6.702 8.99902H4.75C4.21957 8.99902 3.71086 9.20974 3.33579 9.58481C2.96071 9.95988 2.75 10.4686 2.75 10.999V19.25C2.75 19.7805 2.96071 20.2892 3.33579 20.6642C3.71086 21.0393 4.21957 21.25 4.75 21.25H13.001C13.5314 21.25 14.0401 21.0393 14.4152 20.6642C14.7903 20.2892 15.001 19.7805 15.001 19.25V17.298" stroke="currentColor" stroke-width="1.5" stroke-linecap="round" stroke-linejoin="round"/>
</svg>
