<svg width="24" height="24" viewBox="0 0 24 24" fill="none" xmlns="http://www.w3.org/2000/svg">
<path d="M21 7.35321V16.6472C21.0001 16.7543 20.9714 16.8595 20.9171 16.9518C20.8627 17.0442 20.7847 17.1203 20.691 17.1722L12.291 21.8382C12.202 21.8876 12.1018 21.9135 12 21.9135C11.8982 21.9135 11.798 21.8876 11.709 21.8382L3.309 17.1722C3.21532 17.1203 3.13725 17.0442 3.08292 16.9518C3.02858 16.8595 2.99995 16.7543 3 16.6472V7.35321C3.00013 7.24625 3.02884 7.14127 3.08317 7.04914C3.1375 6.95701 3.21547 6.88108 3.309 6.82921L11.709 2.16221C11.798 2.11282 11.8982 2.08691 12 2.08691C12.1018 2.08691 12.202 2.11282 12.291 2.16221L20.691 6.82921C20.7845 6.88108 20.8625 6.95701 20.9168 7.04914C20.9712 7.14127 20.9999 7.24625 21 7.35321Z" stroke="currentColor" stroke-width="1.5" stroke-linecap="round" stroke-linejoin="round"/>
<path d="M3.52734 7.29432L11.7073 11.8383C11.7965 11.8879 11.8968 11.9139 11.9988 11.9139C12.1009 11.9139 12.2012 11.8879 12.2903 11.8383L20.4993 7.27832M11.9993 21.0003V12.0003" stroke="currentColor" stroke-width="1.5" stroke-linecap="round" stroke-linejoin="round"/>
</svg>
