<svg width="24" height="24" viewBox="0 0 24 24" fill="none" xmlns="http://www.w3.org/2000/svg">
<path d="M22.1149 16.1008C22.0276 16.0458 21.9278 16.0137 21.8248 16.0074C21.7217 16.0011 21.6188 16.0208 21.5254 16.0648C21.1836 16.2271 20.8063 16.3002 20.4286 16.2774C20.0509 16.2547 19.6851 16.1367 19.3653 15.9345C19.0454 15.7323 18.782 15.4525 18.5994 15.121C18.4168 14.7896 18.3211 14.4174 18.3211 14.039C18.3211 13.6606 18.4168 13.2884 18.5994 12.957C18.782 12.6256 19.0454 12.3457 19.3653 12.1435C19.6851 11.9413 20.0509 11.8234 20.4286 11.8006C20.8063 11.7778 21.1836 11.851 21.5254 12.0133C21.6187 12.0572 21.7215 12.0769 21.8245 12.0705C21.9274 12.0641 22.027 12.0318 22.1141 11.9766C22.2012 11.9214 22.2729 11.845 22.3226 11.7547C22.3723 11.6643 22.3984 11.5629 22.3984 11.4598V7.10976C22.3984 6.73182 22.2483 6.36937 21.981 6.10213C21.7138 5.83489 21.3513 5.68476 20.9734 5.68476H17.0479C17.1901 4.87828 17.0434 4.04748 16.6335 3.33852C16.2236 2.62957 15.5768 2.08788 14.8069 1.80876C14.2347 1.6036 13.6185 1.5526 13.0203 1.66088C12.4222 1.76915 11.863 2.0329 11.399 2.42563C10.935 2.81836 10.5824 3.32626 10.3768 3.89832C10.1712 4.47039 10.1196 5.08648 10.2274 5.68476H6.30041C5.92247 5.68476 5.56002 5.83489 5.29278 6.10213C5.02554 6.36937 4.87541 6.73182 4.87541 7.10976V10.6273C4.37643 10.5375 3.86383 10.5583 3.37378 10.6883C2.88373 10.8182 2.42816 11.0541 2.03923 11.3793C1.65029 11.7045 1.33745 12.1111 1.12279 12.5704C0.90813 13.0297 0.796875 13.5305 0.796875 14.0375C0.796875 14.5445 0.90813 15.0453 1.12279 15.5046C1.33745 15.9639 1.65029 16.3705 2.03923 16.6957C2.42816 17.0209 2.88373 17.2568 3.37378 17.3868C3.86383 17.5167 4.37643 17.5375 4.87541 17.4478V20.9668C4.87541 21.3447 5.02554 21.7071 5.29278 21.9744C5.56002 22.2416 5.92247 22.3918 6.30041 22.3918H20.9719C21.1592 22.392 21.3446 22.3552 21.5177 22.2837C21.6908 22.2122 21.848 22.1073 21.9805 21.9749C22.113 21.8426 22.2181 21.6854 22.2898 21.5124C22.3615 21.3394 22.3984 21.154 22.3984 20.9668V16.6168C22.3979 16.5138 22.3715 16.4125 22.3218 16.3224C22.272 16.2322 22.2018 16.156 22.1149 16.1008ZM21.1744 20.9668C21.1744 21.0209 21.1529 21.0728 21.1147 21.111C21.0764 21.1493 21.0245 21.1708 20.9704 21.1708H6.30191C6.27499 21.171 6.2483 21.1658 6.22338 21.1557C6.19845 21.1455 6.17579 21.1305 6.15669 21.1115C6.13758 21.0926 6.12242 21.07 6.11208 21.0452C6.10173 21.0203 6.09641 20.9937 6.09641 20.9668V16.6168C6.09654 16.5136 6.07055 16.4121 6.02084 16.3217C5.97114 16.2314 5.89935 16.1551 5.81218 16.0999C5.725 16.0448 5.62528 16.0127 5.52232 16.0065C5.41936 16.0004 5.31653 16.0204 5.22341 16.0648C4.88184 16.2263 4.50496 16.2989 4.1278 16.2758C3.75065 16.2527 3.38547 16.1345 3.06622 15.9324C2.74698 15.7302 2.48402 15.4507 2.30182 15.1196C2.11961 14.7886 2.02406 14.4169 2.02406 14.039C2.02406 13.6611 2.11961 13.2894 2.30182 12.9584C2.48402 12.6274 2.74698 12.3478 3.06622 12.1456C3.38547 11.9435 3.75065 11.8254 4.1278 11.8022C4.50496 11.7791 4.88184 11.8517 5.22341 12.0133C5.31668 12.0572 5.41955 12.0769 5.52247 12.0705C5.62539 12.0641 5.72502 12.0318 5.81211 11.9766C5.8992 11.9214 5.97093 11.845 6.02063 11.7547C6.07033 11.6643 6.0964 11.5629 6.09641 11.4598V7.10976C6.09641 7.05565 6.1179 7.00377 6.15616 6.96551C6.19441 6.92725 6.2463 6.90576 6.30041 6.90576H11.0584C11.1614 6.9055 11.2627 6.87925 11.3528 6.82944C11.443 6.77963 11.5191 6.70788 11.5741 6.62083C11.6292 6.53378 11.6613 6.43425 11.6677 6.33145C11.674 6.22865 11.6543 6.12592 11.6104 6.03276C11.4601 5.70848 11.3887 5.35324 11.402 4.99608C11.4153 4.63891 11.5129 4.28996 11.6869 3.97776C11.9693 3.46762 12.4394 3.08763 12.9974 2.91847C13.5554 2.7493 14.1574 2.80429 14.6755 3.07174C15.1936 3.3392 15.5871 3.79807 15.7724 4.35092C15.9577 4.90378 15.9202 5.50709 15.6679 6.03276C15.6238 6.12542 15.6037 6.22772 15.6096 6.33018C15.6154 6.43265 15.6471 6.53199 15.7015 6.619C15.7559 6.70602 15.8314 6.77792 15.9209 6.82804C16.0105 6.87816 16.1113 6.90489 16.2139 6.90576H20.9719C21.026 6.90576 21.0779 6.92725 21.1162 6.96551C21.1544 7.00377 21.1759 7.05565 21.1759 7.10976V10.6288C20.6769 10.539 20.1643 10.5598 19.6743 10.6898C19.1842 10.8197 18.7287 11.0556 18.3397 11.3808C17.9508 11.706 17.6379 12.1126 17.4233 12.5719C17.2086 13.0312 17.0974 13.532 17.0974 14.039C17.0974 14.546 17.2086 15.0468 17.4233 15.5061C17.6379 15.9654 17.9508 16.372 18.3397 16.6972C18.7287 17.0224 19.1842 17.2583 19.6743 17.3883C20.1643 17.5182 20.6769 17.539 21.1759 17.4493L21.1744 20.9668Z" fill="currentColor"/>
</svg>
