<svg width="20" height="20" viewBox="0 0 20 20" fill="none" xmlns="http://www.w3.org/2000/svg">
<path fill-rule="evenodd" clip-rule="evenodd" d="M17.8 8.18002C17.49 5.00002 15.61 0 9.80004 0C3.99003 0 2.11001 5.00002 1.80002 8.18002C0.712524 8.59275 -0.0048039 9.63684 2.42227e-05 10.8V12.2C2.42227e-05 13.7464 1.25365 15 2.80001 15C4.34642 15 5.60004 13.7464 5.60004 12.2V10.8C5.59498 9.66192 4.90404 8.6393 3.85001 8.21002C4.05002 6.36998 5.03004 2.00002 9.80004 2.00002C14.57 2.00002 15.54 6.36998 15.74 8.21002C14.6882 8.64023 14.0007 9.66356 14 10.8V12.2C14.0022 12.7269 14.1524 13.2425 14.4335 13.6881C14.7147 14.1337 15.1154 14.4913 15.59 14.72C15.17 15.51 14.1 16.58 11.47 16.9C10.9443 16.1017 9.92717 15.787 9.04245 16.1489C8.15778 16.5108 7.65279 17.4481 7.83729 18.386C8.02179 19.3239 8.84417 20 9.80004 20C10.1704 19.9979 10.5329 19.8931 10.8472 19.6971C11.1615 19.5011 11.4152 19.2217 11.58 18.89C15.87 18.4 17.24 16.19 17.67 14.89C18.8333 14.5132 19.6157 13.4227 19.6 12.2V10.8C19.6048 9.63684 18.8875 8.59275 17.8 8.18002ZM3.60002 12.2C3.60002 12.6418 3.24185 13 2.80001 13C2.35817 13 2.00004 12.6419 2.00004 12.2V10.8C1.99923 10.6944 2.01933 10.5897 2.05917 10.492C2.09901 10.3942 2.15781 10.3053 2.23217 10.2304C2.30654 10.1554 2.395 10.0959 2.49247 10.0553C2.58993 10.0148 2.69446 9.99386 2.80003 9.99386C2.90561 9.99386 3.01014 10.0148 3.1076 10.0553C3.20506 10.0959 3.29352 10.1554 3.36789 10.2304C3.44226 10.3053 3.50106 10.3942 3.5409 10.492C3.58074 10.5897 3.60083 10.6944 3.60002 10.8V12.2ZM16 10.8C16 10.3582 16.3582 9.99998 16.8 9.99998C17.2419 9.99998 17.6 10.3582 17.6 10.8V12.2C17.6 12.6418 17.2419 13 16.8 13C16.3582 13 16 12.6419 16 12.2V10.8Z" fill="#00A99D"/>
</svg>
