<svg width="32" height="32" viewBox="0 0 32 32" fill="none" xmlns="http://www.w3.org/2000/svg">
<path d="M19.9993 30.3334H11.9993C4.75935 30.3334 1.66602 27.24 1.66602 20V12C1.66602 4.76002 4.75935 1.66669 11.9993 1.66669H18.666C19.2127 1.66669 19.666 2.12002 19.666 2.66669C19.666 3.21335 19.2127 3.66669 18.666 3.66669H11.9993C5.85268 3.66669 3.66602 5.85335 3.66602 12V20C3.66602 26.1467 5.85268 28.3334 11.9993 28.3334H19.9993C26.146 28.3334 28.3327 26.1467 28.3327 20V13.3334C28.3327 12.7867 28.786 12.3334 29.3327 12.3334C29.8793 12.3334 30.3327 12.7867 30.3327 13.3334V20C30.3327 27.24 27.2393 30.3334 19.9993 30.3334Z" fill="#C2C2C2"/>
<path d="M29.3327 14.3339H23.9993C19.4393 14.3339 17.666 12.5606 17.666 8.00062V2.66728C17.666 2.26728 17.906 1.89395 18.2793 1.74728C18.6527 1.58728 19.0793 1.68062 19.3727 1.96062L30.0394 12.6273C30.3194 12.9073 30.4127 13.3473 30.2527 13.7206C30.0927 14.0939 29.7327 14.3339 29.3327 14.3339ZM19.666 5.08062V8.00062C19.666 11.4406 20.5593 12.3339 23.9993 12.3339H26.9193L19.666 5.08062Z" fill="#C2C2C2"/>
</svg>
