<svg width="32" height="32" viewBox="0 0 32 32" fill="none" xmlns="http://www.w3.org/2000/svg">
<path d="M4.22656 9.91992L15.9999 16.7332L27.6932 9.95988" stroke="#00A99D" stroke-width="1.5" stroke-linecap="round" stroke-linejoin="round"/>
<path d="M16 28.8131V16.7197" stroke="#00A99D" stroke-width="1.5" stroke-linecap="round" stroke-linejoin="round"/>
<path d="M13.2408 3.30699L6.12081 7.26703C4.50748 8.16037 3.1875 10.4003 3.1875 12.2403V19.7737C3.1875 21.6137 4.50748 23.8537 6.12081 24.747L13.2408 28.7071C14.7608 29.5471 17.2541 29.5471 18.7741 28.7071L25.8942 24.747C27.5075 23.8537 28.8275 21.6137 28.8275 19.7737V12.2403C28.8275 10.4003 27.5075 8.16037 25.8942 7.26703L18.7741 3.30699C17.2408 2.45366 14.7608 2.45366 13.2408 3.30699Z" stroke="#00A99D" stroke-width="1.5" stroke-linecap="round" stroke-linejoin="round"/>
<path d="M22.665 17.6535V12.7735L10.0117 5.4668" stroke="#00A99D" stroke-width="1.5" stroke-linecap="round" stroke-linejoin="round"/>
</svg>
