<svg width="42" height="42" viewBox="0 0 42 42" fill="none" xmlns="http://www.w3.org/2000/svg">
<path d="M29.75 21C29.75 22.7306 29.2368 24.4223 28.2754 25.8612C27.3139 27.3002 25.9473 28.4217 24.3485 29.0839C22.7496 29.7462 20.9903 29.9195 19.293 29.5819C17.5956 29.2443 16.0365 28.4109 14.8128 27.1872C13.5891 25.9635 12.7558 24.4044 12.4181 22.707C12.0805 21.0097 12.2538 19.2504 12.9161 17.6515C13.5783 16.0527 14.6998 14.6861 16.1388 13.7246C17.5777 12.7632 19.2694 12.25 21 12.25" stroke="white" stroke-width="2" stroke-linecap="round"/>
<path d="M24.5 3.85C23.3683 3.619 22.2017 3.50233 21 3.5C11.3348 3.5 3.5 11.3348 3.5 21C3.5 30.6652 11.3348 38.5 21 38.5C30.6652 38.5 38.5 30.6652 38.5 21C38.4977 19.7983 38.381 18.6317 38.15 17.5" stroke="white" stroke-width="2" stroke-linecap="round"/>
<path d="M21.0527 20.9356L29.0205 12.9679M34.5452 7.60411L33.5775 4.12511C33.5388 3.99257 33.468 3.87162 33.3715 3.77295C33.2749 3.67427 33.1555 3.60093 33.0238 3.5594C32.8921 3.51788 32.7522 3.50945 32.6165 3.53486C32.4808 3.56028 32.3535 3.61875 32.2457 3.70511C29.7327 5.75786 26.9957 8.52461 29.2305 12.8874C33.735 14.9874 36.3075 12.1559 38.278 9.77411C38.3671 9.66441 38.4275 9.53422 38.4537 9.39532C38.4799 9.25642 38.471 9.11318 38.428 8.97855C38.3849 8.84393 38.3089 8.72216 38.207 8.62427C38.105 8.52637 37.9802 8.45543 37.844 8.41786L34.5452 7.60411Z" stroke="white" stroke-width="2" stroke-linecap="round" stroke-linejoin="round"/>
</svg>
