<svg width="118" height="119" viewBox="0 0 118 119" fill="none" xmlns="http://www.w3.org/2000/svg">
<path d="M1.54905 63.3088C-0.514164 61.2486 -0.516557 57.9058 1.54371 55.8426L9.50199 47.8729C11.5623 45.8097 14.905 45.8073 16.9682 47.8676L24.4398 55.3285C26.503 57.3888 26.5054 60.7315 24.4451 62.7947L16.4868 70.7644C14.4266 72.8276 11.0838 72.83 9.02061 70.7697L1.54905 63.3088Z" fill="#D9D9D9" fill-opacity="0.41"/>
<path d="M24.4289 40.3959C22.3657 38.3357 22.3633 34.9929 24.4236 32.9297L32.3819 24.96C34.4421 22.8968 37.7849 22.8944 39.8481 24.9547L47.3196 32.4156C49.3828 34.4759 49.3852 37.8186 47.325 39.8818L39.3667 47.8515C37.3064 49.9147 33.9637 49.9171 31.9005 47.8568L24.4289 40.3959Z" fill="#D9D9D9" fill-opacity="0.41"/>
<path d="M46.6001 62.6101C44.5369 60.5498 44.5345 57.207 46.5947 55.1438L54.553 47.1742C56.6133 45.111 59.956 45.1086 62.0192 47.1688L69.4908 54.6297C71.554 56.69 71.5564 60.0327 69.4961 62.0959L61.5379 70.0656C59.4776 72.1288 56.1348 72.1312 54.0716 70.0709L46.6001 62.6101Z" fill="#D9D9D9" fill-opacity="0.41"/>
<path d="M47.8065 16.985C45.7433 14.9247 45.7409 11.582 47.8012 9.51876L55.7594 1.5491C57.8197 -0.514119 61.1624 -0.516504 63.2257 1.54376L70.6972 9.00465C72.7604 11.0649 72.7628 14.4077 70.7025 16.4709L62.7443 24.4406C60.684 26.5038 57.3413 26.5061 55.2781 24.4459L47.8065 16.985Z" fill="#00A89C"/>
<path d="M47.8065 16.985C45.7433 14.9247 45.7409 11.582 47.8012 9.51876L55.7594 1.5491C57.8197 -0.514119 61.1624 -0.516504 63.2257 1.54376L70.6972 9.00465C72.7604 11.0649 72.7628 14.4077 70.7025 16.4709L62.7443 24.4406C60.684 26.5038 57.3413 26.5061 55.2781 24.4459L47.8065 16.985Z" fill="#00A89C"/>
<path d="M116.185 54.7649C118.248 56.8251 118.25 60.1679 116.19 62.2311L108.232 70.2008C106.171 72.264 102.829 72.2663 100.765 70.2061L93.2939 62.7452C91.2307 60.6849 91.2283 57.3422 93.2886 55.279L101.247 47.3093C103.307 45.2461 106.65 45.2437 108.713 47.304L116.185 54.7649Z" fill="#00A89C"/>
<path d="M93.7698 31.3866C95.833 33.4469 95.8354 36.7896 93.7751 38.8529L85.8168 46.8225C83.7566 48.8857 80.4138 48.8881 78.3506 46.8279L70.8791 39.367C68.8158 37.3067 68.8135 33.964 70.8737 31.9007L78.832 23.9311C80.8923 21.8678 84.235 21.8655 86.2982 23.9257L93.7698 31.3866Z" fill="#00A89C"/>
<path d="M70.3596 9.00475C72.4228 11.065 72.4252 14.4078 70.3649 16.471L62.4066 24.4406C60.3464 26.5039 57.0036 26.5062 54.9404 24.446L47.4688 16.9851C45.4056 14.9248 45.4032 11.5821 47.4635 9.51888L55.4218 1.54921C57.482 -0.514006 60.8248 -0.516391 62.888 1.54387L70.3596 9.00475Z" fill="#00A89C"/>
<path d="M93.3051 77.6776C95.3683 79.7378 95.3707 83.0806 93.3104 85.1438L85.3521 93.1134C83.2919 95.1767 79.9491 95.1791 77.8859 93.1188L70.4144 85.6579C68.3512 83.5976 68.3488 80.2549 70.409 78.1917L78.3673 70.222C80.4276 68.1588 83.7703 68.1564 85.8335 70.2167L93.3051 77.6776Z" fill="#00A89C"/>
<path d="M24.2487 85.9977C22.1855 83.9375 22.1831 80.5947 24.2434 78.5315L32.2017 70.5619C34.2619 68.4986 37.6047 68.4962 39.6679 70.5565L47.1394 78.0174C49.2026 80.0777 49.205 83.4204 47.1448 85.4836L39.1865 93.4533C37.1262 95.5165 33.7835 95.5189 31.7203 93.4586L24.2487 85.9977Z" fill="#D9D9D9" fill-opacity="0.41"/>
<path d="M70.9537 101.065C73.017 103.126 73.0193 106.468 70.9591 108.531L63.0008 116.501C60.9405 118.564 57.5978 118.567 55.5346 116.506L48.063 109.046C45.9998 106.985 45.9974 103.643 48.0577 101.579L56.016 93.6097C58.0762 91.5465 61.419 91.5441 63.4822 93.6044L70.9537 101.065Z" fill="#00A89C"/>
</svg>
