<svg width="40" height="40" viewBox="0 0 40 40" fill="none" xmlns="http://www.w3.org/2000/svg">
<path fill-rule="evenodd" clip-rule="evenodd" d="M21.0464 28.9325L28.2684 32.6718C28.5534 32.8192 28.8692 32.8971 29.1901 32.8993C29.5109 32.9014 29.8277 32.8276 30.1146 32.684L36.2049 29.6388C36.543 29.4699 36.8273 29.2102 37.0261 28.8888C37.2249 28.5674 37.3304 28.197 37.3306 27.8191V22.1928C37.3304 21.8149 37.2249 21.4445 37.0261 21.1231C36.8273 20.8017 36.543 20.542 36.2049 20.373L29.1885 16.8638L22.1456 20.5115C21.8143 20.6831 21.5366 20.9425 21.3427 21.2612C21.1489 21.58 21.0464 21.9459 21.0464 22.319V28.9325Z" stroke="white" stroke-width="1.3" stroke-linecap="round" stroke-linejoin="round"/>
<path fill-rule="evenodd" clip-rule="evenodd" d="M5.8609 29.5005L11.9837 32.6719C12.2687 32.8193 12.5845 32.8972 12.9054 32.8994C13.2262 32.9015 13.543 32.8277 13.83 32.6841L21.0459 29.0771V22.1929C21.0457 21.815 20.9403 21.4446 20.7415 21.1232C20.5427 20.8018 20.2583 20.5421 19.9202 20.3731L12.9038 16.8639L5.8609 20.5116C5.52963 20.6832 5.2519 20.9426 5.05805 21.2613C4.8642 21.5801 4.76169 21.946 4.76172 22.3191V27.693C4.76169 28.0661 4.8642 28.432 5.05805 28.7508C5.2519 29.0695 5.52963 29.3289 5.8609 29.5005ZM12.9038 16.7193L20.1258 20.4586C20.4108 20.606 20.7266 20.684 21.0475 20.6861C21.3683 20.6882 21.6851 20.6145 21.972 20.4709L29.188 16.8639V9.97966C29.1878 9.60174 29.0824 9.23133 28.8836 8.90993C28.6847 8.58853 28.4004 8.32882 28.0623 8.15988L21.972 5.11471C21.6851 4.97109 21.3683 4.89734 21.0475 4.89946C20.7266 4.90158 20.4108 4.97952 20.1258 5.12692L14.003 8.2983C13.6717 8.46992 13.394 8.72929 13.2001 9.04807C13.0063 9.36685 12.9038 9.73277 12.9038 10.1059V16.7193Z" stroke="white" stroke-width="1.3" stroke-linecap="round" stroke-linejoin="round"/>
<path d="M13.6084 9.07397L20.1363 12.337C20.4188 12.4781 20.7303 12.5516 21.0462 12.5516C21.362 12.5516 21.6735 12.4781 21.9561 12.337L28.4148 9.10858M21.7505 21.2872L28.2784 24.5502C28.5609 24.6914 28.8724 24.7649 29.1883 24.7649C29.5041 24.7649 29.8156 24.6914 30.0981 24.5502L36.5548 21.3218M5.46631 21.2872L11.9942 24.5502C12.2768 24.6914 12.5883 24.7649 12.9041 24.7649C13.2199 24.7649 13.5314 24.6914 13.814 24.5502L20.2707 21.3218M21.0462 12.7929V20.9351M29.1883 25.0062V32.1306M12.9041 25.0062V32.1306" stroke="white" stroke-width="1.3" stroke-linecap="round" stroke-linejoin="round"/>
</svg>
