<svg width="59" height="59" viewBox="0 0 59 59" fill="none" xmlns="http://www.w3.org/2000/svg">
<rect x="0.442383" y="0.444458" width="58.2396" height="58.2396" rx="29.1198" fill="white" fill-opacity="0.16"/>
<rect x="5.30078" y="5.29791" width="48.533" height="48.533" rx="24.2665" fill="white"/>
<path d="M39.7549 30.0001C39.7549 31.2805 39.5027 32.5484 39.0127 33.7313C38.5227 34.9142 37.8046 35.989 36.8992 36.8944C35.9938 37.7998 34.919 38.518 33.7361 39.008C32.5531 39.4979 31.2853 39.7501 30.0049 39.7501C28.7245 39.7501 27.4566 39.4979 26.2737 39.008C25.0908 38.518 24.016 37.7998 23.1106 36.8944C22.2052 35.989 21.487 34.9142 20.9971 33.7313C20.5071 32.5484 20.2549 31.2805 20.2549 30.0001C20.2549 27.4143 21.2821 24.9343 23.1106 23.1058C24.9391 21.2774 27.419 20.2501 30.0049 20.2501C32.5907 20.2501 35.0707 21.2774 36.8992 23.1058C38.7277 24.9343 39.7549 27.4143 39.7549 30.0001Z" fill="#141313"/>
<path d="M34.2397 29.644C34.3032 29.6792 34.356 29.7306 34.3929 29.7931C34.4297 29.8556 34.4491 29.9268 34.4491 29.9993C34.4491 30.0719 34.4297 30.1431 34.3929 30.2055C34.356 30.268 34.3032 30.3195 34.2397 30.3547L28.1698 33.7271C28.108 33.7614 28.0382 33.779 27.9675 33.7781C27.8967 33.7772 27.8275 33.7579 27.7665 33.722C27.7056 33.6861 27.655 33.6349 27.6199 33.5734C27.5848 33.512 27.5664 33.4425 27.5664 33.3718V26.6269C27.5664 26.3171 27.899 26.1221 28.1698 26.2727L34.2397 29.644Z" fill="white"/>
</svg>
