<svg width="19" height="18" viewBox="0 0 19 18" fill="none" xmlns="http://www.w3.org/2000/svg">
<g clip-path="url(#clip0_1538_1330)">
<path d="M16.8336 0H1.49492C0.760156 0 0.166016 0.580078 0.166016 1.29727V16.6992C0.166016 17.4164 0.760156 18 1.49492 18H16.8336C17.5684 18 18.166 17.4164 18.166 16.7027V1.29727C18.166 0.580078 17.5684 0 16.8336 0ZM5.50625 15.3387H2.83438V6.74648H5.50625V15.3387ZM4.17031 5.57578C3.3125 5.57578 2.61992 4.8832 2.61992 4.02891C2.61992 3.17461 3.3125 2.48203 4.17031 2.48203C5.02461 2.48203 5.71719 3.17461 5.71719 4.02891C5.71719 4.87969 5.02461 5.57578 4.17031 5.57578ZM15.5047 15.3387H12.8363V11.1621C12.8363 10.1672 12.8187 8.88398 11.4477 8.88398C10.059 8.88398 9.84805 9.97031 9.84805 11.0918V15.3387H7.1832V6.74648H9.74258V7.9207H9.77773C10.1328 7.2457 11.0047 6.53203 12.302 6.53203C15.0055 6.53203 15.5047 8.31094 15.5047 10.6242V15.3387Z" fill="#0A66C2"/>
</g>
<defs>
<clipPath id="clip0_1538_1330">
<rect width="18" height="18" fill="white" transform="translate(0.166016)"/>
</clipPath>
</defs>
</svg>
