<svg width="20" height="20" viewBox="0 0 20 20" fill="none" xmlns="http://www.w3.org/2000/svg">
<path d="M9.58268 18.125C4.87435 18.125 1.04102 14.2916 1.04102 9.58329C1.04102 4.87496 4.87435 1.04163 9.58268 1.04163C14.291 1.04163 18.1243 4.87496 18.1243 9.58329C18.1243 14.2916 14.291 18.125 9.58268 18.125ZM9.58268 2.29163C5.55768 2.29163 2.29102 5.56663 2.29102 9.58329C2.29102 13.6 5.55768 16.875 9.58268 16.875C13.6077 16.875 16.8743 13.6 16.8743 9.58329C16.8743 5.56663 13.6077 2.29163 9.58268 2.29163Z" fill="#141313"/>
<path d="M18.3326 18.9587C18.1742 18.9587 18.0159 18.9003 17.8909 18.7753L16.2242 17.1087C15.9826 16.867 15.9826 16.467 16.2242 16.2253C16.4659 15.9837 16.8659 15.9837 17.1076 16.2253L18.7742 17.892C19.0159 18.1337 19.0159 18.5337 18.7742 18.7753C18.6492 18.9003 18.4909 18.9587 18.3326 18.9587Z" fill="#141313"/>
</svg>
