<svg width="40" height="40" viewBox="0 0 40 40" fill="none" xmlns="http://www.w3.org/2000/svg">
<path d="M16.25 33.75H8.75V26.25H7.5C6.50544 26.25 5.55161 25.8549 4.84835 25.1517C4.14509 24.4484 3.75 23.4946 3.75 22.5C3.75 21.5054 4.14509 20.5516 4.84835 19.8483C5.55161 19.1451 6.50544 18.75 7.5 18.75H8.75V10H16.25M16.25 33.75H17M16.25 33.75C16.25 32.4239 16.7768 31.1521 17.7145 30.2145C18.6521 29.2768 19.9239 28.75 21.25 28.75C22.5761 28.75 23.8479 29.2768 24.7855 30.2145C25.7232 31.1521 26.25 32.4239 26.25 33.75M16.25 10H17M16.25 10C16.25 8.67392 16.7768 7.40215 17.7145 6.46447C18.6521 5.52678 19.9239 5 21.25 5C22.5761 5 23.8479 5.52678 24.7855 6.46447C25.7232 7.40215 26.25 8.67392 26.25 10M26.25 33.75H33.75V23.75H30C29.0054 23.75 28.0516 23.3549 27.3483 22.6517C26.6451 21.9484 26.25 20.9946 26.25 20C26.25 19.0054 26.6451 18.0516 27.3483 17.3483C28.0516 16.6451 29.0054 16.25 30 16.25H33.75V10H26.25M26.25 33.75H25.5M26.25 10H25.5" stroke="white" stroke-width="1.5"/>
</svg>
