<svg width="60" height="60" viewBox="0 0 60 60" fill="none" xmlns="http://www.w3.org/2000/svg">
<g clip-path="url(#clip0_1870_2275)">
<path d="M27.7885 38.531C23.7385 38.531 20.4385 35.231 20.4385 31.181C20.4385 27.1311 23.7385 23.8311 27.7885 23.8311C31.8385 23.8311 35.1385 27.1311 35.1385 31.181C35.1385 35.2404 31.8385 38.531 27.7885 38.531ZM27.7885 25.6592C26.3223 25.6617 24.9168 26.2452 23.88 27.282C22.8433 28.3188 22.2597 29.7242 22.2572 31.1904C22.2572 34.2373 24.7416 36.7217 27.7885 36.7217C30.8353 36.7217 33.3197 34.2373 33.3197 31.1904C33.3197 28.1342 30.8353 25.6592 27.7885 25.6592Z" fill="white"/>
<path d="M27.7895 45.2905C20.0176 45.2905 13.6895 38.9623 13.6895 31.1905C13.6895 23.4186 20.0176 17.0905 27.7895 17.0905C35.5613 17.0905 41.8895 23.4186 41.8895 31.1905C41.8895 38.9623 35.5707 45.2905 27.7895 45.2905ZM27.7895 18.8998C21.0113 18.8998 15.5082 24.4123 15.5082 31.1811C15.5082 37.9498 21.0207 43.4623 27.7895 43.4623C34.5582 43.4623 40.0707 37.9498 40.0707 31.1811C40.0801 24.4123 34.5676 18.8998 27.7895 18.8998Z" fill="white"/>
<path d="M27.7893 51.6937C16.483 51.6937 7.28613 42.4968 7.28613 31.1906C7.28613 19.8843 16.483 10.6874 27.7893 10.6874C39.0955 10.6874 48.2924 19.8843 48.2924 31.1906C48.2924 42.4874 39.0955 51.6937 27.7893 51.6937ZM27.7893 12.4968C17.4861 12.4968 9.10488 20.8781 9.10488 31.1812C9.10488 41.4843 17.4861 49.8749 27.7893 49.8749C38.0924 49.8749 46.4736 41.4937 46.4736 31.1906C46.4736 20.8874 38.0924 12.4968 27.7893 12.4968Z" fill="white"/>
<path d="M27.793 57.9469C13.0367 57.9469 1.02734 45.9376 1.02734 31.1813C1.02734 16.4251 13.0367 4.41569 27.793 4.41569C42.5492 4.41569 54.5586 16.4251 54.5586 31.1813C54.5586 45.9469 42.5586 57.9469 27.793 57.9469ZM27.793 6.23444C14.0398 6.23444 2.84609 17.4282 2.84609 31.1813C2.84609 44.9344 14.0398 56.1282 27.793 56.1282C41.5461 56.1282 52.7398 44.9344 52.7398 31.1813C52.7398 17.4282 41.5555 6.23444 27.793 6.23444ZM53.6305 11.0532C53.593 11.0532 53.5555 11.0532 53.518 11.0438L49.243 10.5282C49.0403 10.5032 48.8518 10.4112 48.7075 10.2668C48.5631 10.1224 48.4711 9.93395 48.4461 9.73131L47.9305 5.45631C47.893 5.17506 47.9961 4.90319 48.193 4.70631L52.6367 0.262561C52.7576 0.142364 52.9098 0.0584862 53.076 0.0204591C53.2421 -0.0175681 53.4156 -0.00821926 53.5768 0.0474431C53.7379 0.103105 53.8802 0.202849 53.9874 0.335339C54.0947 0.46783 54.1627 0.627753 54.1836 0.796936L54.6148 4.36881L58.1867 4.80006C58.3559 4.82098 58.5158 4.88893 58.6483 4.9962C58.7808 5.10347 58.8805 5.24576 58.9362 5.40688C58.9919 5.56801 59.0012 5.74152 58.9632 5.9077C58.9252 6.07387 58.8413 6.22605 58.7211 6.34694L54.2773 10.7907C54.0992 10.9594 53.8742 11.0532 53.6305 11.0532ZM50.1711 8.81256L53.3023 9.19694L56.1055 6.39381L53.6867 6.10319C53.4845 6.07942 53.2964 5.98759 53.1533 5.84277C53.0102 5.69796 52.9206 5.50878 52.8992 5.30631L52.5992 2.86881L49.7961 5.67194L50.1711 8.81256Z" fill="white"/>
<path d="M27.7887 32.0998C27.6089 32.1012 27.4326 32.0491 27.2825 31.9501C27.1324 31.851 27.0152 31.7095 26.9458 31.5436C26.8764 31.3776 26.858 31.1948 26.8929 31.0183C26.9278 30.8419 27.0145 30.6799 27.1418 30.5529L48.7043 8.99039C49.0606 8.63414 49.6324 8.63414 49.9887 8.99039C50.3449 9.34664 50.3449 9.91852 49.9887 10.2748L28.4262 31.8372C28.2564 32.005 28.0274 32.0993 27.7887 32.0998ZM12.1887 59.9997H6.60123C6.27311 59.9997 5.96373 59.8216 5.80436 59.531C5.72576 59.3895 5.68688 59.2295 5.69183 59.0677C5.69678 58.906 5.74538 58.7486 5.83248 58.6122L10.7356 50.7841C10.9981 50.3622 11.57 50.231 11.9919 50.4935C12.4137 50.756 12.545 51.3185 12.2825 51.7497L8.25123 58.181H11.7106L14.8325 53.4747C15.1043 53.0529 15.6762 52.9404 16.0887 53.2216C16.5106 53.5029 16.6231 54.0654 16.3418 54.4779L12.9481 59.5966C12.7794 59.8497 12.4887 59.9997 12.1887 59.9997ZM48.9949 59.9997H43.3887C43.0887 59.9997 42.7981 59.8497 42.6293 59.5966L39.2356 54.4779C39.1695 54.3788 39.1237 54.2677 39.1006 54.1509C39.0776 54.0341 39.0778 53.9139 39.1014 53.7972C39.1249 53.6805 39.1712 53.5696 39.2377 53.4708C39.3041 53.372 39.3894 53.2873 39.4887 53.2216C39.5877 53.1555 39.6989 53.1097 39.8157 53.0867C39.9325 53.0636 40.0527 53.0639 40.1694 53.0874C40.2861 53.1109 40.397 53.1572 40.4958 53.2237C40.5945 53.2902 40.6792 53.3755 40.7449 53.4747L43.8668 58.181H47.3356L43.3043 51.7497C43.1769 51.5444 43.1359 51.297 43.1904 51.0616C43.2448 50.8262 43.3903 50.6219 43.5949 50.4935C43.8002 50.366 44.0476 50.3251 44.283 50.3795C44.5185 50.434 44.7227 50.5795 44.8512 50.7841L49.7543 58.6122C49.9324 58.8935 49.9418 59.2497 49.7824 59.531C49.6324 59.8216 49.3231 59.9997 48.9949 59.9997Z" fill="white"/>
</g>
<defs>
<clipPath id="clip0_1870_2275">
<rect width="60" height="60" fill="white"/>
</clipPath>
</defs>
</svg>
