<svg width="32" height="32" viewBox="0 0 32 32" fill="none" xmlns="http://www.w3.org/2000/svg">
<path d="M16.0003 2.6665C8.65366 2.6665 2.66699 8.65317 2.66699 15.9998C2.66699 23.3465 8.65366 29.3332 16.0003 29.3332C23.347 29.3332 29.3337 23.3465 29.3337 15.9998C29.3337 8.65317 23.347 2.6665 16.0003 2.6665ZM22.3737 12.9332L14.8137 20.4932C14.627 20.6798 14.3737 20.7865 14.107 20.7865C13.8403 20.7865 13.587 20.6798 13.4003 20.4932L9.62699 16.7198C9.24032 16.3332 9.24032 15.6932 9.62699 15.3065C10.0137 14.9198 10.6537 14.9198 11.0403 15.3065L14.107 18.3732L20.9603 11.5198C21.347 11.1332 21.987 11.1332 22.3737 11.5198C22.7603 11.9065 22.7603 12.5332 22.3737 12.9332Z" fill="#079D92"/>
</svg>
