<svg width="22" height="23" viewBox="0 0 22 23" fill="none" xmlns="http://www.w3.org/2000/svg">
<path d="M19.25 5.98165C16.1975 5.67915 13.1267 5.52332 10.065 5.52332C8.25 5.52332 6.435 5.61498 4.62 5.79832L2.75 5.98165" stroke="#DB1414" stroke-linecap="round" stroke-linejoin="round"/>
<path d="M7.79102 5.05587L7.99268 3.85504C8.13935 2.98421 8.24935 2.33337 9.79852 2.33337H12.2002C13.7493 2.33337 13.8685 3.02087 14.006 3.86421L14.2077 5.05587" stroke="#DB1414" stroke-linecap="round" stroke-linejoin="round"/>
<path d="M17.279 8.8783L16.6832 18.1091C16.5824 19.5483 16.4999 20.6666 13.9424 20.6666H8.05737C5.49987 20.6666 5.41737 19.5483 5.31654 18.1091L4.7207 8.8783" stroke="#DB1414" stroke-linecap="round" stroke-linejoin="round"/>
<path d="M9.46875 15.625H12.5212" stroke="#DB1414" stroke-linecap="round" stroke-linejoin="round"/>
<path d="M8.70898 11.9584H13.2923" stroke="#DB1414" stroke-linecap="round" stroke-linejoin="round"/>
</svg>
