<svg width="18" height="18" viewBox="0 0 18 18" fill="none" xmlns="http://www.w3.org/2000/svg">
<path d="M5.595 10.2414C5.48 10.1264 5.4225 9.99139 5.4225 9.83639C5.4225 9.68139 5.48 9.54664 5.595 9.43214C5.71 9.31764 5.845 9.26014 6 9.25964C6.155 9.25914 6.29 9.31664 6.405 9.43214C6.52 9.54764 6.5775 9.68264 6.5775 9.83714C6.5775 9.99164 6.52 10.1264 6.405 10.2414C6.29 10.3564 6.155 10.4139 6 10.4139C5.845 10.4139 5.71 10.3564 5.595 10.2414ZM8.595 10.2414C8.48 10.1264 8.4225 9.99139 8.4225 9.83639C8.4225 9.68139 8.48 9.54664 8.595 9.43214C8.71 9.31764 8.845 9.26014 9 9.25964C9.155 9.25914 9.29 9.31664 9.405 9.43214C9.52 9.54764 9.5775 9.68264 9.5775 9.83714C9.5775 9.99164 9.52 10.1264 9.405 10.2414C9.29 10.3564 9.155 10.4139 9 10.4139C8.845 10.4139 8.71 10.3564 8.595 10.2414ZM11.595 10.2414C11.48 10.1264 11.4225 9.99139 11.4225 9.83639C11.4225 9.68139 11.48 9.54664 11.595 9.43214C11.71 9.31764 11.845 9.26014 12 9.25964C12.155 9.25914 12.29 9.31664 12.405 9.43214C12.52 9.54764 12.5775 9.68264 12.5775 9.83714C12.5775 9.99164 12.52 10.1264 12.405 10.2414C12.29 10.3564 12.155 10.4139 12 10.4139C11.845 10.4139 11.71 10.3564 11.595 10.2414ZM4.21275 15.7501C3.86725 15.7501 3.579 15.6346 3.348 15.4036C3.117 15.1726 3.001 14.8844 3 14.5389V4.96139C3 4.61639 3.11575 4.32839 3.34725 4.09739C3.57875 3.86639 3.867 3.75064 4.212 3.75014H5.53875V2.07764H6.3465V3.75014H11.712V2.07764H12.462V3.75014H13.7887C14.1337 3.75014 14.422 3.86589 14.6535 4.09739C14.885 4.32889 15.0005 4.61714 15 4.96214V14.5389C15 14.8839 14.8845 15.1721 14.6535 15.4036C14.4225 15.6351 14.134 15.7506 13.788 15.7501H4.21275ZM4.21275 15.0001H13.7895C13.9045 15.0001 14.0103 14.9521 14.1068 14.8561C14.2032 14.7601 14.2512 14.6541 14.2507 14.5381V7.96214H3.75V14.5389C3.75 14.6539 3.798 14.7596 3.894 14.8561C3.99 14.9526 4.09575 15.0006 4.21125 15.0001M3.75 7.21139H14.25V4.96139C14.25 4.84639 14.202 4.74064 14.106 4.64414C14.01 4.54764 13.904 4.49964 13.788 4.50014H4.212C4.0965 4.50014 3.9905 4.54814 3.894 4.64414C3.7975 4.74014 3.7495 4.84614 3.75 4.96214V7.21139Z" fill="#079D92"/>
</svg>
