<svg width="20" height="20" viewBox="0 0 20 20" fill="none" xmlns="http://www.w3.org/2000/svg">
<g clip-path="url(#clip0_1406_4249)">
<path fill-rule="evenodd" clip-rule="evenodd" d="M18.9551 4.02896C19.2654 4.34126 19.4883 4.72959 19.6014 5.15508C20.0195 6.72553 20.0195 10.0005 20.0195 10.0005C20.0195 10.0005 20.0195 13.2755 19.6014 14.846C19.4883 15.2715 19.2654 15.6598 18.9551 15.9721C18.6448 16.2844 18.2579 16.5097 17.8332 16.6255C16.2695 17.046 10.0195 17.046 10.0195 17.046C10.0195 17.046 3.76953 17.046 2.20589 16.6255C1.78114 16.5097 1.39425 16.2844 1.08394 15.9721C0.773628 15.6598 0.550786 15.2715 0.437713 14.846C0.0195313 13.2755 0.0195312 10.0005 0.0195312 10.0005C0.0195312 10.0005 0.0195313 6.72553 0.437713 5.15508C0.550786 4.72959 0.773628 4.34126 1.08394 4.02896C1.39425 3.71665 1.78114 3.49133 2.20589 3.37553C3.76953 2.95508 10.0195 2.95508 10.0195 2.95508C10.0195 2.95508 16.2695 2.95508 17.8332 3.37553C18.2579 3.49133 18.6448 3.71665 18.9551 4.02896ZM13.2014 10.0006L7.97409 7.0267V12.9744L13.2014 10.0006Z" fill="white"/>
</g>
<defs>
<clipPath id="clip0_1406_4249">
<rect width="20" height="20" fill="white"/>
</clipPath>
</defs>
</svg>
