<svg width="32" height="32" viewBox="0 0 32 32" fill="none" xmlns="http://www.w3.org/2000/svg">
<path d="M22.6667 4.45051C26.6521 6.75588 29.3334 11.0649 29.3334 16.0001M27.5497 4.45051H22.6667V9.33341M27.5497 22.6667C25.2443 26.6521 20.9353 29.3334 16.0001 29.3334M27.5497 27.5497V22.6667H22.6667M9.33341 27.5497C5.34807 25.2443 2.66675 20.9353 2.66675 16.0001M4.45051 27.5497H9.33341V22.6667M4.45051 9.33341C6.75588 5.34807 11.0649 2.66675 16.0001 2.66675M4.45051 4.45051V9.33341H9.33341" stroke="#00A99D" stroke-width="2.66667" stroke-linecap="round" stroke-linejoin="round"/>
<path d="M27.5496 22.6667C25.2442 26.6521 20.9352 29.3334 16 29.3334M27.5496 27.5497V22.6667H22.6667" stroke="#00A99D" stroke-linejoin="round"/>
<path d="M9.33341 27.5496C5.34807 25.2442 2.66675 20.9352 2.66675 16M4.45051 27.5496H9.33341V22.6667" stroke="#00A99D" stroke-linejoin="round"/>
<path d="M4.45068 9.33341C6.7561 5.34807 11.065 2.66675 16.0002 2.66675M4.45068 4.45051V9.33341H9.33356" stroke="#00A99D" stroke-linejoin="round"/>
<path d="M22.6667 4.45068C26.6521 6.7561 29.3334 11.065 29.3334 16.0002M27.5497 4.45068H22.6667V9.33356" stroke="#00A99D" stroke-linejoin="round"/>
</svg>
