<svg width="32" height="32" viewBox="0 0 32 32" fill="none" xmlns="http://www.w3.org/2000/svg">
<g clip-path="url(#clip0_2199_9612)">
<path d="M23.5911 16C23.5873 14.8048 23.4592 13.6132 23.2089 12.4444H26.4089C26.2449 11.9566 26.0459 11.4813 25.8133 11.0222H22.8356C22.2761 9.15193 21.4078 7.38836 20.2667 5.80445C19.5378 5.49796 18.7778 5.27145 18 5.12889C19.5637 6.80771 20.7435 8.80648 21.4578 10.9867H16.6667V4.97778H15.3333V10.9956H10.5422C11.258 8.81142 12.4409 6.80945 14.0089 5.12889C13.2345 5.26921 12.4775 5.49273 11.7511 5.79556C10.6055 7.37283 9.73122 9.13033 9.16445 10.9956H6.1689C5.9321 11.463 5.73007 11.9473 5.56445 12.4444H8.79112C8.54084 13.6132 8.41274 14.8048 8.4089 16C8.41158 17.3074 8.56066 18.6103 8.85334 19.8844H5.70668C5.88956 20.3831 6.10943 20.8674 6.36445 21.3333H9.23556C9.77948 23.0364 10.5863 24.6439 11.6267 26.0978C12.3716 26.4171 13.1497 26.6526 13.9467 26.8C12.4957 25.2177 11.38 23.3582 10.6667 21.3333H15.3422V26.9689H16.6756V21.3333H21.3333C20.6174 23.3589 19.4986 25.2185 18.0445 26.8C18.8452 26.6476 19.6263 26.4061 20.3733 26.08C21.4121 24.6316 22.2188 23.0302 22.7645 21.3333H25.6089C25.8627 20.876 26.0826 20.4007 26.2667 19.9111H23.1111C23.4178 18.6296 23.5788 17.3176 23.5911 16ZM15.3333 19.8844H10.2311C9.60566 17.438 9.57822 14.877 10.1511 12.4178H15.3333V19.8844ZM21.7689 19.8844H16.6667V12.4444H21.8489C22.1043 13.6122 22.2295 14.8047 22.2222 16C22.2305 17.3085 22.0783 18.613 21.7689 19.8844Z" fill="#00A99D"/>
<path d="M16.0001 1.77783C13.1872 1.77783 10.4374 2.61195 8.09862 4.17471C5.75978 5.73747 3.93689 7.95867 2.86044 10.5574C1.78399 13.1562 1.50235 16.0158 2.05111 18.7747C2.59988 21.5335 3.95442 24.0677 5.94343 26.0567C7.93244 28.0457 10.4666 29.4002 13.2254 29.949C15.9843 30.4978 18.8439 30.2161 21.4427 29.1397C24.0414 28.0632 26.2626 26.2403 27.8254 23.9015C29.3882 21.5627 30.2223 18.8129 30.2223 16.0001C30.2223 12.2281 28.7239 8.61061 26.0567 5.94342C23.3895 3.27624 19.772 1.77783 16.0001 1.77783ZM16.0001 28.4445C13.5388 28.4445 11.1328 27.7146 9.0863 26.3472C7.03982 24.9798 5.44478 23.0363 4.50289 20.7623C3.561 18.4884 3.31456 15.9862 3.79473 13.5723C4.2749 11.1583 5.46012 8.94089 7.20051 7.2005C8.9409 5.46012 11.1583 4.2749 13.5723 3.79473C15.9863 3.31455 18.4884 3.561 20.7623 4.50289C23.0363 5.44478 24.9798 7.03981 26.3472 9.08629C27.7147 11.1328 28.4445 13.5388 28.4445 16.0001C28.4445 19.3005 27.1334 22.4658 24.7996 24.7996C22.4658 27.1334 19.3005 28.4445 16.0001 28.4445Z" fill="#00A99D"/>
</g>
<defs>
<clipPath id="clip0_2199_9612">
<rect width="32" height="32" fill="white"/>
</clipPath>
</defs>
</svg>
