<svg width="32" height="32" viewBox="0 0 32 32" fill="none" xmlns="http://www.w3.org/2000/svg">
<g clip-path="url(#clip0_2199_9606)">
<path d="M30.964 21.7595V13.6925L31.467 13.427C31.794 13.257 32 12.9199 32.004 12.551C32.008 12.1829 31.8085 11.8419 31.4855 11.6645L16.4405 3.61448C16.1395 3.44948 15.7755 3.45044 15.4725 3.61744L0.509975 11.6774C0.191444 11.855 -0.00552495 12.1919 -0.00352495 12.5575C-0.00152495 12.923 0.199475 13.2575 0.522006 13.4315L7.09651 16.931C7.01401 17.0765 6.96301 17.2425 6.96301 17.4215V25.8835C6.96304 26.0246 6.99291 26.1641 7.05064 26.2928C7.10838 26.4216 7.19267 26.5366 7.29801 26.6305C7.51504 26.823 9.59304 28.5085 15.9465 28.5085C22.2775 28.5085 24.4115 26.9155 24.634 26.734C24.8665 26.5445 25.001 26.2605 25.001 25.9595V17.2805C25.001 17.14 24.9715 17.0065 24.9195 16.8855L28.964 14.7489V21.765C28.371 22.112 27.969 22.7485 27.969 23.4845C27.969 24.589 28.8645 25.4845 29.969 25.4845C31.0735 25.4845 31.969 24.589 31.969 23.4845C31.969 22.7439 31.5615 22.1049 30.964 21.7595ZM23.001 25.3865C22.215 25.7645 20.135 26.5085 15.9465 26.5085C11.7315 26.5085 9.69848 25.7165 8.96298 25.3355V17.925L15.457 21.382C15.6027 21.4608 15.7658 21.502 15.9315 21.502C16.0928 21.5021 16.2518 21.4628 16.3945 21.3875L23.001 17.898V25.3865ZM15.9395 19.369L3.07697 12.539L15.962 5.63351L28.887 12.519L15.9395 19.369Z" fill="#00A99D"/>
</g>
<defs>
<clipPath id="clip0_2199_9606">
<rect width="32" height="32" fill="white"/>
</clipPath>
</defs>
</svg>
