<svg width="32" height="32" viewBox="0 0 32 32" fill="none" xmlns="http://www.w3.org/2000/svg">
<path d="M11.8546 20.1426L20.1466 11.8533M13.2359 11.1599H13.2492M17.3679 20.8319H17.3812M18.7732 5.2026C19.1432 5.59827 19.5934 5.91028 20.0938 6.1177C20.5942 6.32512 21.1332 6.42317 21.6746 6.40526C22.1941 6.38761 22.7117 6.47692 23.1953 6.66767C23.6789 6.85842 24.1181 7.14653 24.4857 7.51412C24.8533 7.8817 25.1414 8.32092 25.3322 8.8045C25.5229 9.28809 25.6122 9.80572 25.5946 10.3253C25.5765 10.8665 25.6743 11.4054 25.8815 11.9058C26.0887 12.4062 26.4005 12.8565 26.7959 13.2266C27.1759 13.5817 27.4788 14.0111 27.6859 14.4882C27.8931 14.9653 27.9999 15.4798 27.9999 15.9999C27.9999 16.52 27.8931 17.0346 27.6859 17.5116C27.4788 17.9887 27.1759 18.4181 26.7959 18.7733C26.4006 19.1432 26.089 19.5933 25.8818 20.0934C25.6746 20.5936 25.5767 21.1322 25.5946 21.6733C25.6126 22.1929 25.5236 22.7107 25.333 23.1945C25.1424 23.6782 24.8543 24.1176 24.4866 24.4853C24.1189 24.853 23.6795 25.1411 23.1958 25.3317C22.712 25.5223 22.1942 25.6113 21.6746 25.5933C21.1332 25.5754 20.5942 25.6734 20.0938 25.8808C19.5934 26.0883 19.1432 26.4003 18.7732 26.7959C18.4181 27.1759 17.9887 27.4789 17.5116 27.686C17.0345 27.8931 16.52 28 15.9999 28C15.4798 28 14.9653 27.8931 14.4882 27.686C14.0111 27.4789 13.5817 27.1759 13.2266 26.7959C12.8566 26.4003 12.4064 26.0883 11.906 25.8808C11.4056 25.6734 10.8666 25.5754 10.3252 25.5933C9.80569 25.6109 9.28806 25.5216 8.80447 25.3309C8.32089 25.1401 7.88167 24.852 7.51408 24.4844C7.1465 24.1168 6.85839 23.6776 6.66764 23.194C6.47689 22.7104 6.38757 22.1928 6.40523 21.6733C6.42331 21.132 6.32547 20.5931 6.11828 20.0927C5.91109 19.5923 5.59933 19.142 5.2039 18.7719C4.82445 18.4165 4.52197 17.987 4.31519 17.5099C4.1084 17.0329 4.00171 16.5185 4.00171 15.9986C4.00171 15.4787 4.1084 14.9643 4.31519 14.4873C4.52197 14.0102 4.82445 13.5807 5.2039 13.2253C5.59933 12.8552 5.91109 12.4049 6.11828 11.9045C6.32547 11.4041 6.42331 10.8652 6.40523 10.3239C6.38756 9.80427 6.47692 9.28652 6.66775 8.80285C6.85858 8.31917 7.14681 7.87989 7.51454 7.51228C7.88227 7.14468 8.32165 6.8566 8.80539 6.66593C9.28913 6.47527 9.80691 6.38609 10.3266 6.40393C10.8678 6.42201 11.4067 6.32417 11.9071 6.11698C12.4075 5.90979 12.8578 5.59803 13.2279 5.2026C13.583 4.82283 14.0124 4.52007 14.4893 4.31307C14.9662 4.10608 15.4806 3.99927 16.0006 3.99927C16.5205 3.99927 17.0349 4.10608 17.5118 4.31307C17.9888 4.52007 18.4181 4.82283 18.7732 5.2026Z" stroke="#00A99D" stroke-width="2.66667" stroke-linecap="round" stroke-linejoin="round"/>
</svg>
