<svg width="32" height="32" viewBox="0 0 32 32" fill="none" xmlns="http://www.w3.org/2000/svg">
<path d="M6.66675 26.6666V21.2759C6.66675 20.683 6.87786 20.1768 7.30008 19.7573C7.72141 19.3377 8.22808 19.1279 8.82008 19.1279H23.1801C23.7721 19.1279 24.2787 19.339 24.7001 19.7613C25.1214 20.1835 25.3325 20.6897 25.3334 21.2799V26.6666H6.66675ZM12.3854 16.7693C10.8032 16.7693 9.4543 16.2115 8.33875 15.0959C7.22408 13.9813 6.66675 12.6337 6.66675 11.0533C6.66675 9.47281 7.22408 8.12392 8.33875 7.00659C9.45342 5.88926 10.8027 5.33148 12.3867 5.33326H19.6174C21.1996 5.33326 22.5481 5.89059 23.6627 7.00526C24.7774 8.11992 25.3343 9.46926 25.3334 11.0533C25.3325 12.6373 24.7752 13.9857 23.6614 15.0986C22.5476 16.2115 21.1992 16.7688 19.6161 16.7706L12.3854 16.7693ZM8.00008 25.3333H24.0001V21.2826C24.0001 21.0426 23.9232 20.8457 23.7694 20.6919C23.6156 20.5381 23.4192 20.4613 23.1801 20.4613H8.82008C8.58097 20.4613 8.38453 20.5381 8.23075 20.6919C8.07697 20.8457 8.00008 21.0426 8.00008 21.2826V25.3333ZM12.3854 15.4359H19.6147C20.8459 15.4359 21.8845 15.0128 22.7307 14.1666C23.577 13.3204 24.0001 12.2821 24.0001 11.0519C24.0001 9.8217 23.577 8.78303 22.7307 7.93592C21.8845 7.08881 20.8463 6.6657 19.6161 6.66659H12.3854C11.1543 6.66659 10.1156 7.0897 9.26941 7.93592C8.42319 8.78215 8.00008 9.82081 8.00008 11.0519C8.00008 12.283 8.42319 13.3213 9.26941 14.1666C10.1156 15.0119 11.1543 15.435 12.3854 15.4359ZM13.0787 11.7453C13.2654 11.5586 13.3587 11.3275 13.3587 11.0519C13.3587 10.7764 13.2654 10.5453 13.0787 10.3586C12.8921 10.1719 12.661 10.0781 12.3854 10.0773C12.1099 10.0764 11.8787 10.1697 11.6921 10.3573C11.5054 10.5448 11.4116 10.7759 11.4107 11.0506C11.4099 11.3253 11.5032 11.5564 11.6907 11.7439C11.8783 11.9315 12.1094 12.0253 12.3841 12.0253C12.6587 12.0253 12.8899 11.9319 13.0774 11.7453M20.3094 11.7453C20.4961 11.5586 20.5894 11.3275 20.5894 11.0519C20.5894 10.7764 20.4961 10.5453 20.3094 10.3586C20.1227 10.1719 19.8916 10.0781 19.6161 10.0773C19.3405 10.0764 19.1094 10.1697 18.9227 10.3573C18.7361 10.5448 18.6423 10.7759 18.6414 11.0506C18.6405 11.3253 18.7339 11.5564 18.9214 11.7439C19.109 11.9315 19.3401 12.0253 19.6147 12.0253C19.8894 12.0253 20.1205 11.9319 20.3081 11.7453" fill="#00A99D"/>
</svg>
