<svg width="40" height="40" viewBox="0 0 40 40" fill="none" xmlns="http://www.w3.org/2000/svg">
<path d="M38.3352 29.8499C38.3686 31.0999 38.0352 32.2833 37.4352 33.2999C37.1019 33.8999 36.6519 34.45 36.1519 34.9C35.0019 35.9666 33.4852 36.6166 31.8019 36.6666C29.3686 36.7166 27.2186 35.4666 26.0352 33.55C25.4019 32.5666 25.0186 31.3833 25.0019 30.1333C24.9519 28.0333 25.8852 26.1333 27.3852 24.8833C28.5186 23.9499 29.9519 23.3666 31.5186 23.3333C35.2019 23.25 38.2519 26.1666 38.3352 29.8499Z" stroke="#079D92" stroke-width="1.5" stroke-miterlimit="10" stroke-linecap="round" stroke-linejoin="round"/>
<path d="M29.0703 30.05L30.7537 31.6499L34.237 28.2832" stroke="#079D92" stroke-width="1.5" stroke-linecap="round" stroke-linejoin="round"/>
<path d="M5.28125 12.4004L19.9979 20.917L34.6145 12.4503" stroke="#079D92" stroke-width="1.5" stroke-linecap="round" stroke-linejoin="round"/>
<path d="M20 36.0171V20.9004" stroke="#079D92" stroke-width="1.5" stroke-linecap="round" stroke-linejoin="round"/>
<path d="M36.0177 15.2835V24.7169C36.0177 24.8002 36.0177 24.8668 36.001 24.9501C34.8344 23.9335 33.3343 23.3335 31.6677 23.3335C30.101 23.3335 28.651 23.8835 27.501 24.8002C25.9677 26.0169 25.001 27.9002 25.001 30.0002C25.001 31.2502 25.351 32.4335 25.9677 33.4335C26.1177 33.7002 26.301 33.9502 26.501 34.1835L23.451 35.8669C21.551 36.9336 18.451 36.9336 16.551 35.8669L7.65101 30.9335C5.63434 29.8169 3.98438 27.0169 3.98438 24.7169V15.2835C3.98438 12.9835 5.63434 10.1835 7.65101 9.06687L16.551 4.1335C18.451 3.06683 21.551 3.06683 23.451 4.1335L32.351 9.06687C34.3677 10.1835 36.0177 12.9835 36.0177 15.2835Z" stroke="#079D92" stroke-width="1.5" stroke-linecap="round" stroke-linejoin="round"/>
</svg>
