<svg width="54" height="54" viewBox="0 0 54 54" fill="none" xmlns="http://www.w3.org/2000/svg">
<path d="M7.13281 16.7402L27.0003 28.2377L46.7328 16.8077" stroke="#141313" stroke-width="2" stroke-linecap="round" stroke-linejoin="round"/>
<path d="M27 48.6224V28.2148" stroke="#141313" stroke-width="2" stroke-linecap="round" stroke-linejoin="round"/>
<path d="M22.34 5.58L10.325 12.2626C7.60246 13.7701 5.375 17.55 5.375 20.655V33.3676C5.375 36.4726 7.60246 40.2525 10.325 41.76L22.34 48.4426C24.905 49.8601 29.1124 49.8601 31.6774 48.4426L43.6925 41.76C46.415 40.2525 48.6425 36.4726 48.6425 33.3676V20.655C48.6425 17.55 46.415 13.7701 43.6925 12.2626L31.6774 5.58C29.0899 4.14 24.905 4.14 22.34 5.58Z" stroke="#141313" stroke-width="2" stroke-linecap="round" stroke-linejoin="round"/>
<path d="M38.2509 29.7896V21.5547L16.8984 9.22461" stroke="#141313" stroke-width="2" stroke-linecap="round" stroke-linejoin="round"/>
</svg>
