<svg width="54" height="54" viewBox="0 0 54 54" fill="none" xmlns="http://www.w3.org/2000/svg">
<path d="M16.785 30.7237C16.44 30.3787 16.2675 29.9737 16.2675 29.5087C16.2675 29.0437 16.44 28.6394 16.785 28.2959C17.13 27.9524 17.535 27.7799 18 27.7784C18.465 27.7769 18.87 27.9494 19.215 28.2959C19.56 28.6424 19.7325 29.0474 19.7325 29.5109C19.7325 29.9744 19.56 30.3787 19.215 30.7237C18.87 31.0687 18.465 31.2412 18 31.2412C17.535 31.2412 17.13 31.0687 16.785 30.7237ZM25.785 30.7237C25.44 30.3787 25.2675 29.9737 25.2675 29.5087C25.2675 29.0437 25.44 28.6394 25.785 28.2959C26.13 27.9524 26.535 27.7799 27 27.7784C27.465 27.7769 27.87 27.9494 28.215 28.2959C28.56 28.6424 28.7325 29.0474 28.7325 29.5109C28.7325 29.9744 28.56 30.3787 28.215 30.7237C27.87 31.0687 27.465 31.2412 27 31.2412C26.535 31.2412 26.13 31.0687 25.785 30.7237ZM34.785 30.7237C34.44 30.3787 34.2675 29.9737 34.2675 29.5087C34.2675 29.0437 34.44 28.6394 34.785 28.2959C35.13 27.9524 35.535 27.7799 36 27.7784C36.465 27.7769 36.87 27.9494 37.215 28.2959C37.56 28.6424 37.7325 29.0474 37.7325 29.5109C37.7325 29.9744 37.56 30.3787 37.215 30.7237C36.87 31.0687 36.465 31.2412 36 31.2412C35.535 31.2412 35.13 31.0687 34.785 30.7237ZM12.6383 47.2499C11.6018 47.2499 10.737 46.9034 10.044 46.2104C9.351 45.5174 9.003 44.6527 9 43.6162V14.8837C9 13.8487 9.34725 12.9847 10.0417 12.2917C10.7362 11.5987 11.601 11.2514 12.636 11.2499H16.6163V6.23242H19.0395V11.2499H35.136V6.23242H37.386V11.2499H41.3662C42.4012 11.2499 43.266 11.5972 43.9605 12.2917C44.655 12.9862 45.0015 13.8509 45 14.8859V43.6162C45 44.6512 44.6535 45.5159 43.9605 46.2104C43.2675 46.9049 42.402 47.2514 41.364 47.2499H12.6383ZM12.6383 44.9999H41.3685C41.7135 44.9999 42.0308 44.8559 42.3203 44.5679C42.6097 44.2799 42.7537 43.9619 42.7523 43.6139V23.8859H11.25V43.6162C11.25 43.9612 11.394 44.2784 11.682 44.5679C11.97 44.8574 12.2872 45.0014 12.6337 44.9999M11.25 21.6337H42.75V14.8837C42.75 14.5387 42.606 14.2214 42.318 13.9319C42.03 13.6424 41.712 13.4984 41.364 13.4999H12.636C12.2895 13.4999 11.9715 13.6439 11.682 13.9319C11.3925 14.2199 11.2485 14.5379 11.25 14.8859V21.6337Z" />
</svg>
