<svg width="34" height="34" viewBox="0 0 34 34" fill="none" xmlns="http://www.w3.org/2000/svg">
<path d="M10.5657 19.3447C10.3485 19.1275 10.2399 18.8725 10.2399 18.5797C10.2399 18.287 10.3485 18.0324 10.5657 17.8161C10.783 17.5999 11.038 17.4913 11.3307 17.4903C11.6235 17.4894 11.8785 17.598 12.0957 17.8161C12.313 18.0343 12.4216 18.2893 12.4216 18.5812C12.4216 18.873 12.313 19.1275 12.0957 19.3447C11.8785 19.562 11.6235 19.6706 11.3307 19.6706C11.038 19.6706 10.783 19.562 10.5657 19.3447ZM16.2324 19.3447C16.0152 19.1275 15.9066 18.8725 15.9066 18.5797C15.9066 18.287 16.0152 18.0324 16.2324 17.8161C16.4496 17.5999 16.7046 17.4913 16.9974 17.4903C17.2902 17.4894 17.5452 17.598 17.7624 17.8161C17.9796 18.0343 18.0882 18.2893 18.0882 18.5812C18.0882 18.873 17.9796 19.1275 17.7624 19.3447C17.5452 19.562 17.2902 19.6706 16.9974 19.6706C16.7046 19.6706 16.4496 19.562 16.2324 19.3447ZM21.8991 19.3447C21.6818 19.1275 21.5732 18.8725 21.5732 18.5797C21.5732 18.287 21.6818 18.0324 21.8991 17.8161C22.1163 17.5999 22.3713 17.4913 22.6641 17.4903C22.9568 17.4894 23.2118 17.598 23.4291 17.8161C23.6463 18.0343 23.7549 18.2893 23.7549 18.5812C23.7549 18.873 23.6463 19.1275 23.4291 19.3447C23.2118 19.562 22.9568 19.6706 22.6641 19.6706C22.3713 19.6706 22.1163 19.562 21.8991 19.3447ZM7.95481 29.7501C7.3022 29.7501 6.75773 29.532 6.3214 29.0956C5.88506 28.6593 5.66595 28.1148 5.66406 27.4622V9.3714C5.66406 8.71973 5.8827 8.17573 6.31998 7.7394C6.75726 7.30307 7.30173 7.08443 7.9534 7.08348H10.4595V3.92432H11.9852V7.08348H22.1201V3.92432H23.5367V7.08348H26.0428C26.6945 7.08348 27.239 7.30212 27.6762 7.7394C28.1135 8.17668 28.3317 8.72115 28.3307 9.37282V27.4622C28.3307 28.1139 28.1126 28.6584 27.6762 29.0956C27.2399 29.5329 26.695 29.7511 26.0414 29.7501H7.95481ZM7.95481 28.3335H26.0442C26.2614 28.3335 26.4612 28.2428 26.6435 28.0615C26.8258 27.8801 26.9164 27.6799 26.9155 27.4608V15.0395H7.08073V27.4622C7.08073 27.6795 7.1714 27.8792 7.35273 28.0615C7.53406 28.2438 7.73381 28.3344 7.95198 28.3335M7.08073 13.6214H26.9141V9.3714C26.9141 9.15418 26.8234 8.95443 26.6421 8.77215C26.4607 8.58987 26.2605 8.49921 26.0414 8.50015H7.9534C7.73523 8.50015 7.53501 8.59082 7.35273 8.77215C7.17045 8.95348 7.07978 9.15371 7.08073 9.37282V13.6214Z" fill="#079D92"/>
</svg>
