<svg width="34" height="34" viewBox="0 0 34 34" fill="none" xmlns="http://www.w3.org/2000/svg">
<path d="M28.3307 14.1663C28.3307 23.3747 16.9974 31.1663 16.9974 31.1663C16.9974 31.1663 5.66406 23.3747 5.66406 14.1663C5.66406 11.1606 6.85811 8.27788 8.98352 6.15246C11.1089 4.02705 13.9916 2.83301 16.9974 2.83301C20.0032 2.83301 22.8859 4.02705 25.0113 6.15246C27.1367 8.27788 28.3307 11.1606 28.3307 14.1663Z" stroke="#079D92" stroke-width="2"/>
<path d="M21.25 14.166C21.25 15.2932 20.8022 16.3742 20.0052 17.1712C19.2082 17.9682 18.1272 18.416 17 18.416C15.8728 18.416 14.7918 17.9682 13.9948 17.1712C13.1978 16.3742 12.75 15.2932 12.75 14.166C12.75 13.0388 13.1978 11.9578 13.9948 11.1608C14.7918 10.3638 15.8728 9.91602 17 9.91602C18.1272 9.91602 19.2082 10.3638 20.0052 11.1608C20.8022 11.9578 21.25 13.0388 21.25 14.166Z" stroke="#079D92" stroke-width="2"/>
</svg>
