<svg width="54" height="54" viewBox="0 0 54 54" fill="none" xmlns="http://www.w3.org/2000/svg">
<path d="M45 22.5C45 37.125 27 49.5 27 49.5C27 49.5 9 37.125 9 22.5C9 17.7261 10.8964 13.1477 14.2721 9.77208C17.6477 6.39642 22.2261 4.5 27 4.5C31.7739 4.5 36.3523 6.39642 39.7279 9.77208C43.1036 13.1477 45 17.7261 45 22.5Z"  stroke-width="2"/>
<path d="M33.75 22.5C33.75 24.2902 33.0388 26.0071 31.773 27.273C30.5071 28.5388 28.7902 29.25 27 29.25C25.2098 29.25 23.4929 28.5388 22.227 27.273C20.9612 26.0071 20.25 24.2902 20.25 22.5C20.25 20.7098 20.9612 18.9929 22.227 17.727C23.4929 16.4612 25.2098 15.75 27 15.75C28.7902 15.75 30.5071 16.4612 31.773 17.727C33.0388 18.9929 33.75 20.7098 33.75 22.5Z"  stroke-width="2"/>
</svg>
