<svg width="54" height="54" viewBox="0 0 54 54" fill="none" xmlns="http://www.w3.org/2000/svg">
<path d="M47.8125 38.5312C47.8125 32.4195 45.2132 26.9149 41.0599 23.0625M5.625 38.5312C5.625 26.8815 15.069 17.4375 26.7188 17.4375C27.5754 17.4375 28.4201 17.4886 29.25 17.5878" stroke="#141313" stroke-width="2.25" stroke-linecap="round"/>
<path d="M47.8125 38.5312C47.8125 32.4195 45.2132 26.9149 41.0599 23.0625M5.625 38.5312C5.625 26.8815 15.069 17.4375 26.7188 17.4375C27.5754 17.4375 28.4201 17.4886 29.25 17.5878" stroke="#141313" stroke-width="2" stroke-linecap="round"/>
<path d="M31.6723 36.653C31.3516 37.5989 30.7718 38.4359 29.999 39.0686C26.5398 41.9005 21.4163 38.9426 22.1393 34.5308C22.3008 33.5451 22.7357 32.6245 23.3946 31.8738L37.6599 15.6207C38.0657 15.1583 38.8129 15.5897 38.6153 16.1724L31.6723 36.653Z" stroke="#141313" stroke-width="2"/>
</svg>
