<svg width="32" height="32" viewBox="0 0 32 32" fill="none" xmlns="http://www.w3.org/2000/svg">
<path d="M11.8337 22.6267C10.9916 22.1032 10.0991 21.3477 9.64143 20.454C9.34863 19.8822 9.44308 19.43 9.89723 18.9651C9.14408 18.286 9.18338 17.6251 9.74288 16.8127C8.79953 16.3748 7.94388 16.3904 6.92833 16.6412C6.70873 16.6954 6.49753 16.8033 6.27858 16.8484C5.29483 17.0509 6.23608 15.1427 6.38733 14.8584C6.70233 14.2665 7.13548 13.7582 7.57198 13.2543C9.09228 11.4993 10.3596 10.5895 12.8556 10.791L13.339 10.8535C13.728 10.9181 13.6109 10.846 13.9193 10.4698L14.4201 9.86946C16.1639 7.86511 18.3179 6.07692 20.7535 4.98424C22.3004 4.29024 24.3889 3.68491 26.0744 3.56831C26.2834 3.55955 26.5295 3.53379 26.7352 3.56809C27.7656 3.73991 27.597 4.67833 27.6289 5.48121L27.6739 6.95452C27.6737 7.27422 27.6849 7.59907 27.659 7.91777C27.3153 12.1559 24.6808 15.7939 21.437 18.3841L20.3626 19.1635L20.4761 19.5073C21.2818 22.537 18.9405 25.6636 16.0193 26.4172C15.1607 26.6387 15.4457 25.8309 15.5741 25.3684C15.9027 24.1841 16.1898 23.0621 15.3422 22.0343L14.7172 22.3297C14.3958 22.4595 14.0024 22.4129 13.6894 22.2777L13.6209 22.3764C13.1927 23.1347 12.4724 22.9895 11.8337 22.6267ZM26.6143 4.36587C25.6967 4.41348 24.2544 4.60305 23.3777 4.94747C23.5791 5.20832 23.8055 5.44101 24.0378 5.67381L24.9454 6.51562L26.8179 7.84257C26.8441 7.64022 26.8353 7.42897 26.8355 7.22502L26.7945 5.86992C26.7694 5.37516 26.7623 4.87291 26.7087 4.3801C26.6763 4.3595 26.6512 4.36439 26.6143 4.36587ZM22.4596 5.19526C21.8074 5.45001 21.1661 5.68286 20.54 6.00121C18.5199 7.02836 16.7645 8.49717 15.2464 10.168L14.3022 11.2523C13.5325 12.2148 12.843 13.2369 12.1767 14.2726L10.7213 16.7304C10.4632 17.188 9.85558 17.8175 10.3355 18.2491C10.5588 18.4498 10.809 18.6203 11.0368 18.8161L13.2706 20.8578C13.5848 21.1629 13.9229 21.685 14.3887 21.568L16.721 20.4791C21.044 18.2358 25.5007 14.4145 26.6138 9.45591L26.7473 8.75152C25.0432 7.72157 23.9512 6.90901 22.6959 5.40001C22.6255 5.31541 22.579 5.18481 22.4596 5.19526ZM11.8581 11.5946C9.88998 11.7679 9.09413 12.7421 7.89143 14.1655C7.45193 14.6856 7.10713 15.1775 6.85688 15.8147C7.31958 15.713 7.76768 15.6419 8.24313 15.6607C8.91193 15.6703 9.57508 15.8025 10.1981 16.0497L10.2072 16.0266C10.3307 15.7179 10.555 15.4198 10.7247 15.1328C11.4312 13.9377 12.1701 12.7404 13.0041 11.6294C12.8354 11.5888 12.6607 11.5911 12.4883 11.5903L11.8581 11.5946ZM10.4779 19.4878C10.387 19.5844 10.3253 19.662 10.2826 19.7904C10.4802 20.4037 10.9881 20.8891 11.4592 21.3066C11.7355 21.5514 12.4091 22.1575 12.8181 22.1046C12.9053 22.0533 12.947 21.9232 12.9727 21.829L12.9825 21.7858C12.6446 21.3607 12.1975 20.9973 11.7998 20.6287L10.9568 19.8575C10.803 19.7261 10.6522 19.5918 10.4779 19.4878ZM19.6645 19.699L16.1818 21.6498C16.2115 21.7202 16.2652 21.7847 16.3028 21.8521C16.9346 22.987 16.7552 23.9572 16.5108 25.1368L16.4422 25.4206C18.3809 24.8368 20.3619 21.9114 19.7228 19.8482L19.6645 19.699Z" fill="#141313"/>
<path d="M20.0665 14.8495C19.9061 14.8465 19.7405 14.8508 19.5811 14.8322C16.2777 14.446 16.2878 9.37729 19.8765 9.17899C22.4722 9.10659 23.7476 12.1841 22.0478 13.9958C21.5099 14.5691 20.8398 14.8248 20.0665 14.8495ZM19.7588 10.0216C17.1688 10.3589 17.3636 14.1824 20.2486 14.0297C20.7992 13.9546 21.246 13.7007 21.5839 13.2561C22.6746 11.8209 21.5102 9.87479 19.7588 10.0216ZM6.92609 27.5877C6.33544 27.8462 5.71674 28.0514 5.10374 28.2498C4.57986 28.4193 3.87456 28.6977 4.06221 27.7582L4.18644 27.1762C4.6057 25.1607 5.43079 21.6185 7.88649 21.3345C8.48444 21.2863 9.37624 21.4191 9.64214 22.0512C9.78554 22.3921 9.58429 22.8695 9.45864 23.1893C9.89914 22.9156 10.4107 22.228 10.7718 23.0312C10.9883 23.513 10.9017 24.2142 10.7144 24.6917C10.1297 26.1822 8.28169 26.9944 6.92609 27.5877ZM8.04269 22.1465C5.99054 22.4295 5.32864 25.7074 4.97108 27.4216L7.47689 26.4382C8.61999 25.9035 9.97559 25.1213 10.1032 23.7288C9.77684 23.9847 8.56479 24.8049 8.21129 24.3158C8.02224 24.0542 8.25064 23.8072 8.37664 23.5785C8.56639 23.2341 8.78849 22.7708 8.82469 22.3763C8.67789 22.2198 8.53269 22.1481 8.31724 22.1408L8.04269 22.1465Z" fill="#141313"/>
</svg>
