<svg width="32" height="32" viewBox="0 0 32 32" fill="none" xmlns="http://www.w3.org/2000/svg">
<g clip-path="url(#clip0_1558_4685)">
<path d="M10.8562 0.0625019C10.2125 0.225002 9.6125 0.731251 9.34375 1.33125C9.11875 1.825 9.0625 2.50625 9.20625 3.00625C9.40625 3.69375 9.9875 4.29375 10.6938 4.54375L11 4.65625V5.775V6.89375L11.5938 7.825C11.9187 8.33125 12.1875 8.7625 12.1875 8.775C12.1875 8.78125 11.975 8.9 11.7125 9.025C11.0125 9.375 10.4625 9.99375 10.225 10.7063C10.2063 10.7625 10.1375 10.8313 10.0813 10.85C9.74375 10.9625 9.40625 11.1688 9.13125 11.4125L8.825 11.6875L6.75625 10.675L4.6875 9.66875V9.025V8.38125L4.90625 8.31875C5.9875 8.025 6.73125 6.775 6.5 5.65C6.1875 4.15625 4.75 3.3875 3.28125 3.94375C2.76875 4.1375 2.2625 4.64375 2.0625 5.15625C1.59375 6.3875 2.075 7.65 3.21875 8.19375C3.425 8.29375 3.63125 8.375 3.66875 8.375C3.725 8.375 3.75 8.625 3.7625 9.325L3.78125 10.2688L6.1 11.4L8.41875 12.5313L8.4125 13.0625C8.4125 13.4 8.45 13.6938 8.51875 13.8688L8.61875 14.15L8.36875 14.4188C8.13125 14.6813 7.8125 15.25 7.8125 15.4188C7.8125 15.4813 7.45625 15.5 6.2375 15.5L4.65625 15.4938L4.40625 14.9813C4.2125 14.5875 4.08125 14.4125 3.83125 14.2125C3.4 13.8625 2.90625 13.6813 2.3625 13.6813C1.4 13.675 0.60625 14.175 0.20625 15.0313C0.05625 15.3563 0.03125 15.4813 0.03125 16C0.03125 16.5188 0.05625 16.6438 0.20625 16.9688C0.85625 18.3625 2.625 18.7625 3.83125 17.7875C4.08125 17.5875 4.2125 17.4125 4.40625 17.0188L4.65625 16.5063L6.19375 16.5H7.73125L7.80625 16.825C7.95625 17.4938 8.45 18.1438 9.0875 18.5C9.3875 18.6688 9.425 18.7188 9.45625 18.925C9.46875 19.05 9.48125 19.1625 9.475 19.1625C9.46875 19.1688 8.91875 19.375 8.25 19.625C7.58125 19.875 7.0125 20.0938 6.99375 20.1188C6.975 20.1375 7.03125 20.3438 7.11875 20.575L7.28125 20.9875L8.59375 20.5L9.90625 20.0125L10.1687 20.2375C10.4125 20.4563 10.425 20.4875 10.4313 20.8188C10.45 21.9313 11.2688 23.0625 12.3188 23.4313L12.625 23.5438L11.8125 24.3063L11 25.075V26.2125V27.3438L10.6938 27.4563C10.2375 27.6188 9.8125 27.9375 9.54375 28.3188C9.225 28.775 9.1 29.2125 9.1375 29.8063C9.1875 30.7063 9.675 31.4188 10.4875 31.8C10.7937 31.9438 10.925 31.9688 11.4375 31.9688C11.975 31.9688 12.0688 31.95 12.4375 31.775C13.1687 31.4313 13.6125 30.825 13.7438 30.0063C13.925 28.9 13.2312 27.775 12.175 27.4375L11.9375 27.3625V26.4188V25.4688L12.8625 24.6188L13.7812 23.7688L13.95 23.8875C14.4937 24.2688 15.2438 24.3813 15.7438 24.1563C15.9813 24.05 16.0188 24.05 16.2375 24.1438C16.3625 24.1938 16.55 24.2563 16.6438 24.2813C16.925 24.3375 17.5375 24.1875 17.9 23.9688L18.225 23.775L19.1438 24.6188L20.0625 25.4688V26.4188V27.3625L19.8313 27.4375C18.7688 27.775 18.0813 28.9 18.2563 30.0125C18.3813 30.8188 18.8312 31.425 19.5625 31.775C19.9312 31.95 20.025 31.9688 20.5625 31.9688C21.075 31.9688 21.2063 31.9438 21.5125 31.8C22.325 31.4188 22.8125 30.7063 22.8625 29.8063C22.9 29.2125 22.775 28.775 22.4563 28.3188C22.1875 27.9375 21.7625 27.6188 21.3062 27.4563L21 27.3438V26.2125V25.075L20.1875 24.3125L19.3687 23.5438L19.6812 23.4375C20.7312 23.0625 21.55 21.9313 21.5688 20.8188C21.575 20.4875 21.5875 20.4563 21.8375 20.2375L22.0938 20.0125L24.7063 20.9813L27.3125 21.9563V22.7875V23.6188L27.0938 23.6813C26.5688 23.825 25.9625 24.3375 25.7 24.8563C25.4813 25.2875 25.4062 25.8063 25.4937 26.2875C25.6437 27.1063 26.0688 27.675 26.8 28.0188C27.175 28.2 27.275 28.2188 27.7812 28.2125C28.5438 28.2063 28.9688 28.0438 29.4438 27.5688C30.3687 26.6438 30.3438 25.15 29.3938 24.2188C29.1688 24 28.5 23.625 28.3313 23.625C28.275 23.625 28.25 23.3313 28.2375 22.4563L28.2188 21.2938L25.4062 20.2438C23.8625 19.6625 22.575 19.1813 22.5562 19.175C22.5375 19.1625 22.5313 19.05 22.55 18.925C22.575 18.7188 22.6125 18.6688 22.9125 18.5C23.55 18.1438 24.0438 17.4938 24.1938 16.825L24.2688 16.5H25.8062L27.3438 16.5063L27.5938 17.0188C27.7875 17.4125 27.9188 17.5875 28.1688 17.7875C28.6 18.1375 29.0938 18.3188 29.6375 18.3188C30.6 18.325 31.3938 17.825 31.7938 16.9688C31.9438 16.6438 31.9688 16.5188 31.9688 16C31.9688 15.4813 31.9438 15.3563 31.7938 15.0313C31.1438 13.6375 29.375 13.2375 28.1688 14.2125C27.9188 14.4125 27.7875 14.5875 27.5938 14.9813L27.3438 15.4938L25.7688 15.5C24.5438 15.5 24.1875 15.4813 24.1875 15.4188C24.1875 15.25 23.8687 14.6813 23.6313 14.4188L23.3813 14.15L23.4813 13.8688C23.55 13.6938 23.5875 13.4 23.5875 13.0625L23.5813 12.5313L24.3875 12.1438L25.1875 11.7563L24.9875 11.3438C24.875 11.1188 24.7625 10.9375 24.7375 10.9375C24.7063 10.9375 24.35 11.1063 23.9312 11.3125L23.1812 11.6938L22.825 11.375C22.6313 11.2063 22.3313 11.0063 22.1625 10.9438C21.9875 10.8813 21.825 10.7875 21.8062 10.7438C21.7812 10.6938 21.6812 10.4937 21.5875 10.2875C21.3375 9.775 20.8625 9.3125 20.2875 9.025C20.025 8.9 19.8125 8.78125 19.8125 8.76875C19.8125 8.75625 20.0812 8.325 20.4062 7.8125L21 6.88125V5.76875V4.65625L21.3062 4.54375C21.7625 4.38125 22.1875 4.0625 22.4563 3.68125C22.775 3.225 22.9 2.7875 22.8625 2.19375C22.8125 1.29375 22.325 0.581253 21.5125 0.200003C21.2063 0.0562534 21.075 0.0312519 20.5625 0.0312519C20.025 0.0312519 19.9313 0.0500031 19.55 0.231253C18.8313 0.568752 18.3813 1.175 18.2563 1.9875C18.0813 3.1 18.7688 4.225 19.8313 4.5625L20.0625 4.6375V5.625V6.6125L19.525 7.4625L18.9875 8.30625L18.7875 8.15625C18.0125 7.5625 17 7.58125 16.2375 8.19375L16 8.38125L15.7688 8.19375C15 7.58125 13.9875 7.5625 13.2125 8.15625L13.0125 8.30625L12.475 7.4625L11.9375 6.6125V5.625V4.6375L12.175 4.5625C13.2312 4.225 13.9188 3.1 13.7438 1.9875C13.5688 0.856251 12.7125 0.0812511 11.575 0.0250015C11.3125 0.0125008 10.9875 0.0312519 10.8562 0.0625019ZM11.8938 1.00625C12.2 1.0875 12.55 1.4 12.6938 1.71875C12.7625 1.86875 12.8125 2.11875 12.8125 2.35C12.8125 2.85 12.625 3.2125 12.2312 3.48125C11.2937 4.1125 10.0625 3.46875 10.0625 2.3375C10.0625 1.3625 10.925 0.737503 11.8938 1.00625ZM21.0063 1.00625C21.8062 1.25 22.1687 2.19375 21.775 2.99375C21.575 3.3875 21.2875 3.6 20.8062 3.69375C19.9375 3.875 19.15 3.2125 19.1625 2.3125C19.175 1.35625 20.0625 0.725002 21.0063 1.00625ZM4.65 4.75625C4.78125 4.79375 5.0125 4.9375 5.1625 5.075C5.8625 5.71875 5.70625 6.88125 4.8625 7.31875C4.31875 7.59375 3.75 7.525 3.2875 7.1125C2.9375 6.80625 2.7875 6.4375 2.825 5.975C2.9 5.06875 3.74375 4.50625 4.65 4.75625ZM15.0688 8.84375C15.5312 9.1375 15.5 8.6375 15.5 16.275C15.5 23.0438 15.5 23.125 15.375 23.25C15.2312 23.3938 15.1813 23.4 14.8625 23.3125C14.7063 23.2688 14.5312 23.1313 14.325 22.9063L14.025 22.5625L13.6625 22.6313C12.8125 22.7875 11.9812 22.375 11.575 21.6C11.4375 21.3375 11.4125 21.1938 11.4062 20.7813C11.4062 20.5063 11.425 20.2125 11.45 20.125C11.4875 19.9875 11.4563 19.95 11.175 19.8125C10.6 19.5313 10.375 19.1313 10.375 18.4063C10.375 17.9625 10.3688 17.9375 10.2375 17.9375C9.9875 17.9375 9.35 17.5938 9.13125 17.3438C8.81875 16.9813 8.6625 16.5938 8.66875 16.1563C8.66875 15.5188 8.9625 15.0188 9.55625 14.6438C9.75 14.5188 9.91875 14.4125 9.925 14.4C9.9375 14.3938 9.8375 14.2375 9.7 14.05C9.375 13.625 9.26875 13.2313 9.375 12.825C9.5375 12.1813 9.975 11.7875 10.625 11.7125L10.9875 11.675L11.0312 11.3813C11.125 10.7063 11.6875 9.99375 12.2937 9.7875C12.4563 9.73125 12.7625 9.6875 12.9812 9.6875C13.2063 9.6875 13.375 9.6625 13.375 9.625C13.375 9.5875 13.4375 9.4375 13.5063 9.28125C13.7938 8.66875 14.4938 8.475 15.0688 8.84375ZM18.1313 8.84375C18.3313 8.975 18.625 9.4375 18.625 9.625C18.625 9.6625 18.7938 9.6875 19.0188 9.6875C19.2375 9.6875 19.5438 9.73125 19.7063 9.7875C20.3125 9.99375 20.875 10.7063 20.9688 11.3813L21.0125 11.675L21.375 11.7125C22.025 11.7875 22.4625 12.1813 22.625 12.825C22.7313 13.2313 22.625 13.625 22.3 14.05C22.1625 14.2375 22.0625 14.3938 22.075 14.4C22.0813 14.4125 22.25 14.5188 22.4438 14.6438C23.45 15.275 23.6375 16.4688 22.8687 17.3438C22.65 17.5938 22.0125 17.9375 21.7688 17.9375C21.6313 17.9375 21.625 17.9625 21.625 18.4188C21.625 18.775 21.5938 18.9688 21.4937 19.1688C21.3438 19.475 21.0063 19.7812 20.7063 19.8813C20.5188 19.9375 20.5063 19.9625 20.55 20.1125C20.575 20.2063 20.5938 20.5063 20.5938 20.7813C20.5875 21.1938 20.5625 21.3375 20.425 21.6C20.0188 22.375 19.1875 22.7875 18.3375 22.6313L17.975 22.5625L17.675 22.9063C17.4688 23.1313 17.2938 23.2688 17.1375 23.3125C16.8188 23.4 16.7687 23.3938 16.625 23.25C16.5 23.125 16.5 23.0438 16.5 16.275C16.5 10.0875 16.5125 9.40625 16.6 9.2125C16.8625 8.66875 17.5813 8.49375 18.1313 8.84375ZM30.4125 14.8188C31.35 15.3938 31.2313 16.9 30.2188 17.2813C29.8125 17.4375 29.2188 17.3875 28.8875 17.1688C28.2938 16.7813 28.0938 15.9125 28.45 15.3063C28.85 14.625 29.7437 14.4062 30.4125 14.8188ZM3.13125 14.8438C3.70625 15.25 3.9 16.1 3.55 16.6938C2.88125 17.8313 1.1125 17.4938 0.95625 16.2C0.8875 15.5813 1.19375 14.9813 1.7125 14.7375C1.90625 14.65 2.075 14.625 2.41875 14.6375C2.8 14.6562 2.90625 14.6875 3.13125 14.8438ZM28.1938 24.575C28.3313 24.6125 28.5562 24.7438 28.6938 24.8688C29.4813 25.5375 29.2938 26.7625 28.3438 27.1938C27.6063 27.5313 26.6875 27.1063 26.4625 26.325C26.1437 25.2313 27.1187 24.25 28.1938 24.575ZM12.1625 28.4688C12.9938 28.9563 13.075 30.1313 12.3313 30.7438C11.4187 31.4938 10.0625 30.8563 10.0625 29.6813C10.0625 29.2625 10.2937 28.7563 10.575 28.5563C11.0437 28.2188 11.6813 28.1875 12.1625 28.4688ZM21.0125 28.3438C21.3438 28.4563 21.6438 28.7375 21.825 29.0875C21.925 29.2812 21.9438 29.4188 21.925 29.7563C21.8938 30.3125 21.6812 30.6438 21.1938 30.8938C20.2313 31.375 19.1812 30.7375 19.1812 29.6688C19.1812 28.6688 20.0688 28.025 21.0125 28.3438Z" fill="#F3F3F3"/>
<path d="M11.1875 15.9996V16.5059L11.6438 16.4871L12.0938 16.4684V15.9996V15.5309L11.6438 15.5121L11.1875 15.4934V15.9996Z" fill="#F3F3F3"/>
<path d="M13.0625 15.9996V16.5059L13.5188 16.4871L13.9688 16.4684V15.9996V15.5309L13.5188 15.5121L13.0625 15.4934V15.9996Z" fill="#F3F3F3"/>
<path d="M18.0268 15.5871C18.0081 15.6309 18.0018 15.8496 18.0143 16.0684L18.0331 16.4684L18.4893 16.4871L18.9393 16.5059V15.9996V15.4996H18.5018C18.1893 15.4996 18.0518 15.5246 18.0268 15.5871Z" fill="#F3F3F3"/>
<path d="M19.9018 15.5871C19.8831 15.6309 19.8768 15.8496 19.8893 16.0684L19.9081 16.4684L20.3643 16.4871L20.8143 16.5059V15.9996V15.4996H20.3768C20.0643 15.4996 19.9268 15.5246 19.9018 15.5871Z" fill="#F3F3F3"/>
<path d="M27.1404 3.84395C26.2654 4.0877 25.6716 4.76895 25.4966 5.7127C25.4091 6.19395 25.4841 6.7127 25.7029 7.14395C25.9654 7.6627 26.5716 8.1752 27.0966 8.31895L27.3154 8.38145V9.01895V9.65645L26.4716 10.0814L25.6279 10.5002L25.7904 10.8564C25.8779 11.0564 25.9716 11.2439 26.0029 11.2752C26.0341 11.3064 26.5216 11.1002 27.1529 10.7939L28.2529 10.2564V9.31895C28.2529 8.60645 28.2716 8.3752 28.3341 8.3752C28.5029 8.3752 29.1716 8.0002 29.3966 7.78145C30.3466 6.8502 30.3716 5.35645 29.4466 4.43145C28.8654 3.85645 27.9466 3.61895 27.1404 3.84395ZM28.4216 4.84395C29.2591 5.2627 29.4466 6.3377 28.8029 7.0377C28.1591 7.7377 26.9966 7.58145 26.5591 6.7377C26.2841 6.20645 26.3529 5.6377 26.7404 5.18145C27.1716 4.6752 27.8216 4.5502 28.4216 4.84395Z" fill="#F3F3F3"/>
<path d="M4.90976 20.8754L3.78476 21.2942L3.76601 22.4567C3.75351 23.3317 3.72851 23.6254 3.67226 23.6254C3.63476 23.6254 3.42851 23.7067 3.22226 23.8067C2.07851 24.3567 1.60351 25.6129 2.06601 26.8442C2.26601 27.3567 2.77226 27.8692 3.27851 28.0567C4.77851 28.6192 6.22851 27.8317 6.50976 26.2942C6.59726 25.8254 6.51601 25.2692 6.30351 24.8567C6.04101 24.3379 5.43476 23.8254 4.90976 23.6817L4.69101 23.6192V22.7879V21.9567L5.50351 21.6567C5.95351 21.4879 6.33476 21.3317 6.35351 21.3067C6.37851 21.2567 6.14726 20.5629 6.07226 20.4942C6.05351 20.4692 5.52851 20.6442 4.90976 20.8754ZM4.85976 24.6754C5.66601 25.0942 5.85976 26.1254 5.26601 26.8192C4.59101 27.6067 3.37226 27.4192 2.93476 26.4692C2.70976 25.9754 2.80976 25.3879 3.20351 24.9629C3.62226 24.5067 4.29726 24.3879 4.85976 24.6754Z" fill="#F3F3F3"/>
</g>
<defs>
<clipPath id="clip0_1558_4685">
<rect width="32" height="32" fill="white"/>
</clipPath>
</defs>
</svg>
