<svg width="40" height="40" viewBox="0 0 40 40" fill="none" xmlns="http://www.w3.org/2000/svg">
<path d="M12.6875 7.8125C12.6875 5.56883 14.5063 3.75 16.75 3.75C18.9937 3.75 20.8125 5.56883 20.8125 7.8125V10.25H22.4375C24.709 10.25 25.8447 10.25 26.7406 10.6211C27.9351 11.1159 28.8841 12.0649 29.3789 13.2594C29.75 14.1553 29.75 15.291 29.75 17.5625H32.1875C34.4312 17.5625 36.25 19.3813 36.25 21.625C36.25 23.8687 34.4312 25.6875 32.1875 25.6875H29.75V28.45C29.75 31.1802 29.75 32.5454 29.2187 33.5882C28.7513 34.5055 28.0055 35.2513 27.0882 35.7187C26.0454 36.25 24.6802 36.25 21.95 36.25H20.8125V33.4063C20.8125 31.387 19.1755 29.75 17.1562 29.75C15.137 29.75 13.5 31.387 13.5 33.4063V36.25H11.55C8.81975 36.25 7.45462 36.25 6.41179 35.7187C5.4945 35.2513 4.74871 34.5055 4.28133 33.5882C3.75 32.5454 3.75 31.1802 3.75 28.45V26.5208H6.1875C8.43117 26.5208 10.25 24.702 10.25 22.4583C10.25 20.2147 8.43117 18.3958 6.1875 18.3958H3.75C3.75 16.1244 3.75 14.1553 4.12109 13.2594C4.61587 12.0649 5.56492 11.1159 6.75942 10.6211C7.65529 10.25 8.79104 10.25 11.0625 10.25H12.6875V7.8125Z" stroke="#00A99D" stroke-width="1.5" stroke-linecap="round" stroke-linejoin="round"/>
</svg>
