<svg width="32" height="32" viewBox="0 0 32 32" fill="none" xmlns="http://www.w3.org/2000/svg">
<path d="M7.29167 12.0003C9.86899 12.0003 11.9583 9.91099 11.9583 7.33366C11.9583 4.75633 9.86899 2.66699 7.29167 2.66699C4.71434 2.66699 2.625 4.75633 2.625 7.33366C2.625 9.91099 4.71434 12.0003 7.29167 12.0003Z" stroke="#06B1A4" stroke-width="1.5"/>
<path d="M22.6276 20H26.6276C28.0943 20 29.2943 21.2 29.2943 22.6667V26.6667C29.2943 28.1333 28.0943 29.3333 26.6276 29.3333H22.6276C21.1609 29.3333 19.9609 28.1333 19.9609 26.6667V22.6667C19.9609 21.2 21.1609 20 22.6276 20Z" stroke="#06B1A4" stroke-width="1.5"/>
<path d="M16.0022 6.66699H19.5755C22.0422 6.66699 23.1889 9.72033 21.3355 11.347L10.6822 20.667C8.82887 22.2803 9.97554 25.3337 12.4289 25.3337H16.0022" stroke="#06B1A4" stroke-width="1.5" stroke-linecap="round" stroke-linejoin="round"/>
<path d="M7.31691 7.33366H7.33231" stroke="#06B1A4" stroke-width="1.5" stroke-linecap="round" stroke-linejoin="round"/>
<path d="M24.645 24.6667H24.6604" stroke="#06B1A4" stroke-width="1.5" stroke-linecap="round" stroke-linejoin="round"/>
</svg>
